<svg xmlns="http://www.w3.org/2000/svg" xmlns:xlink="http://www.w3.org/1999/xlink" width="500" zoomAndPan="magnify" viewBox="0 0 375 374.999991" height="500" preserveAspectRatio="xMidYMid meet" version="1.0"><defs><clipPath id="57ff353521"><path d="M 255 326 L 287 326 L 287 357.5625 L 255 357.5625 Z M 255 326 " clip-rule="nonzero"/></clipPath><clipPath id="b5755c8432"><path d="M 171 17.8125 L 182 17.8125 L 182 29 L 171 29 Z M 171 17.8125 " clip-rule="nonzero"/></clipPath></defs><path fill="#ffffff" d="M 81.28125 58.070312 C 81.28125 59.078125 81.183594 60.082031 80.988281 61.070312 C 80.789062 62.0625 80.496094 63.027344 80.109375 63.960938 C 79.722656 64.894531 79.25 65.78125 78.6875 66.621094 C 78.128906 67.460938 77.488281 68.238281 76.773438 68.953125 C 76.058594 69.667969 75.28125 70.304688 74.441406 70.867188 C 73.601562 71.429688 72.714844 71.902344 71.78125 72.289062 C 70.847656 72.675781 69.882812 72.96875 68.894531 73.164062 C 67.902344 73.363281 66.902344 73.460938 65.890625 73.460938 C 64.878906 73.460938 63.878906 73.363281 62.886719 73.164062 C 61.894531 72.96875 60.933594 72.675781 60 72.289062 C 59.066406 71.902344 58.179688 71.429688 57.339844 70.867188 C 56.5 70.304688 55.722656 69.667969 55.007812 68.953125 C 54.292969 68.238281 53.652344 67.460938 53.09375 66.621094 C 52.53125 65.78125 52.058594 64.894531 51.671875 63.960938 C 51.285156 63.027344 50.992188 62.0625 50.792969 61.070312 C 50.597656 60.082031 50.5 59.078125 50.5 58.070312 C 50.5 57.058594 50.597656 56.058594 50.792969 55.066406 C 50.992188 54.074219 51.285156 53.113281 51.671875 52.179688 C 52.058594 51.246094 52.53125 50.359375 53.09375 49.519531 C 53.652344 48.675781 54.292969 47.898438 55.007812 47.183594 C 55.722656 46.472656 56.5 45.832031 57.339844 45.269531 C 58.179688 44.710938 59.066406 44.234375 60 43.847656 C 60.933594 43.460938 61.894531 43.171875 62.886719 42.972656 C 63.878906 42.777344 64.878906 42.675781 65.890625 42.675781 C 66.902344 42.675781 67.902344 42.777344 68.894531 42.972656 C 69.882812 43.171875 70.847656 43.460938 71.78125 43.847656 C 72.714844 44.234375 73.601562 44.710938 74.441406 45.269531 C 75.28125 45.832031 76.058594 46.472656 76.773438 47.183594 C 77.488281 47.898438 78.128906 48.675781 78.6875 49.519531 C 79.25 50.359375 79.722656 51.246094 80.109375 52.179688 C 80.496094 53.113281 80.789062 54.074219 80.988281 55.066406 C 81.183594 56.058594 81.28125 57.058594 81.28125 58.070312 Z M 81.28125 58.070312 " fill-opacity="1" fill-rule="nonzero"/><path fill="#ffffff" d="M 301.636719 123.355469 C 301.636719 124.367188 301.535156 125.367188 301.339844 126.359375 C 301.140625 127.347656 300.851562 128.3125 300.464844 129.246094 C 300.078125 130.179688 299.601562 131.066406 299.039062 131.90625 C 298.480469 132.746094 297.839844 133.523438 297.125 134.238281 C 296.410156 134.953125 295.632812 135.589844 294.792969 136.152344 C 293.953125 136.714844 293.066406 137.1875 292.132812 137.574219 C 291.199219 137.960938 290.238281 138.253906 289.246094 138.453125 C 288.253906 138.648438 287.253906 138.746094 286.242188 138.746094 C 285.230469 138.746094 284.230469 138.648438 283.238281 138.453125 C 282.25 138.253906 281.285156 137.960938 280.351562 137.574219 C 279.417969 137.1875 278.53125 136.714844 277.691406 136.152344 C 276.851562 135.589844 276.074219 134.953125 275.359375 134.238281 C 274.644531 133.523438 274.007812 132.746094 273.445312 131.90625 C 272.882812 131.066406 272.410156 130.179688 272.023438 129.246094 C 271.636719 128.3125 271.34375 127.347656 271.144531 126.359375 C 270.949219 125.367188 270.851562 124.367188 270.851562 123.355469 C 270.851562 122.34375 270.949219 121.34375 271.144531 120.351562 C 271.34375 119.359375 271.636719 118.398438 272.023438 117.464844 C 272.410156 116.53125 272.882812 115.644531 273.445312 114.804688 C 274.007812 113.964844 274.644531 113.1875 275.359375 112.472656 C 276.074219 111.757812 276.851562 111.117188 277.691406 110.558594 C 278.53125 109.996094 279.417969 109.519531 280.351562 109.132812 C 281.285156 108.746094 282.25 108.457031 283.238281 108.257812 C 284.230469 108.0625 285.230469 107.964844 286.242188 107.964844 C 287.253906 107.964844 288.253906 108.0625 289.246094 108.257812 C 290.238281 108.457031 291.199219 108.746094 292.132812 109.132812 C 293.066406 109.519531 293.953125 109.996094 294.792969 110.558594 C 295.632812 111.117188 296.410156 111.757812 297.125 112.472656 C 297.839844 113.1875 298.480469 113.964844 299.039062 114.804688 C 299.601562 115.644531 300.078125 116.53125 300.464844 117.464844 C 300.851562 118.398438 301.140625 119.359375 301.339844 120.351562 C 301.535156 121.34375 301.636719 122.34375 301.636719 123.355469 Z M 301.636719 123.355469 " fill-opacity="1" fill-rule="nonzero"/><g clip-path="url(#57ff353521)"><path fill="#ffffff" d="M 286.242188 341.640625 C 286.242188 342.648438 286.144531 343.652344 285.945312 344.640625 C 285.75 345.632812 285.457031 346.597656 285.070312 347.53125 C 284.683594 348.464844 284.210938 349.351562 283.648438 350.191406 C 283.085938 351.03125 282.449219 351.808594 281.734375 352.523438 C 281.019531 353.238281 280.242188 353.875 279.402344 354.4375 C 278.5625 355 277.675781 355.472656 276.742188 355.859375 C 275.808594 356.246094 274.84375 356.539062 273.851562 356.734375 C 272.863281 356.933594 271.859375 357.03125 270.851562 357.03125 C 269.839844 357.03125 268.839844 356.933594 267.847656 356.734375 C 266.855469 356.539062 265.894531 356.246094 264.960938 355.859375 C 264.027344 355.472656 263.140625 355 262.300781 354.4375 C 261.457031 353.875 260.679688 353.238281 259.964844 352.523438 C 259.253906 351.808594 258.613281 351.03125 258.050781 350.191406 C 257.492188 349.351562 257.015625 348.464844 256.628906 347.53125 C 256.242188 346.597656 255.953125 345.632812 255.753906 344.640625 C 255.558594 343.652344 255.457031 342.648438 255.457031 341.640625 C 255.457031 340.628906 255.558594 339.628906 255.753906 338.636719 C 255.953125 337.644531 256.242188 336.683594 256.628906 335.75 C 257.015625 334.816406 257.492188 333.929688 258.050781 333.085938 C 258.613281 332.246094 259.253906 331.46875 259.964844 330.753906 C 260.679688 330.039062 261.457031 329.402344 262.300781 328.839844 C 263.140625 328.28125 264.027344 327.804688 264.960938 327.417969 C 265.894531 327.03125 266.855469 326.738281 267.847656 326.542969 C 268.839844 326.34375 269.839844 326.246094 270.851562 326.246094 C 271.859375 326.246094 272.863281 326.34375 273.851562 326.542969 C 274.84375 326.738281 275.808594 327.03125 276.742188 327.417969 C 277.675781 327.804688 278.5625 328.28125 279.402344 328.839844 C 280.242188 329.402344 281.019531 330.039062 281.734375 330.753906 C 282.449219 331.46875 283.085938 332.246094 283.648438 333.085938 C 284.210938 333.929688 284.683594 334.816406 285.070312 335.75 C 285.457031 336.683594 285.75 337.644531 285.945312 338.636719 C 286.144531 339.628906 286.242188 340.628906 286.242188 341.640625 Z M 286.242188 341.640625 " fill-opacity="1" fill-rule="nonzero"/></g><path fill="#ffffff" d="M 202.324219 143.75 C 202.324219 144.539062 202.285156 145.328125 202.207031 146.113281 C 202.128906 146.902344 202.015625 147.683594 201.859375 148.457031 C 201.707031 149.230469 201.515625 149.996094 201.285156 150.753906 C 201.054688 151.507812 200.789062 152.25 200.488281 152.980469 C 200.1875 153.710938 199.847656 154.425781 199.476562 155.121094 C 199.105469 155.816406 198.699219 156.496094 198.257812 157.152344 C 197.820312 157.808594 197.351562 158.441406 196.847656 159.050781 C 196.347656 159.664062 195.816406 160.246094 195.257812 160.804688 C 194.699219 161.363281 194.117188 161.894531 193.503906 162.394531 C 192.894531 162.898438 192.261719 163.367188 191.605469 163.804688 C 190.949219 164.246094 190.269531 164.648438 189.574219 165.023438 C 188.878906 165.394531 188.164062 165.734375 187.433594 166.035156 C 186.703125 166.335938 185.960938 166.601562 185.207031 166.832031 C 184.449219 167.0625 183.683594 167.253906 182.910156 167.40625 C 182.136719 167.5625 181.355469 167.675781 180.570312 167.753906 C 179.78125 167.832031 178.996094 167.871094 178.203125 167.871094 C 177.414062 167.871094 176.625 167.832031 175.839844 167.753906 C 175.054688 167.675781 174.273438 167.5625 173.5 167.40625 C 172.722656 167.253906 171.957031 167.0625 171.203125 166.832031 C 170.445312 166.601562 169.703125 166.335938 168.972656 166.035156 C 168.246094 165.734375 167.53125 165.394531 166.835938 165.023438 C 166.136719 164.652344 165.460938 164.246094 164.804688 163.804688 C 164.148438 163.367188 163.511719 162.898438 162.902344 162.394531 C 162.292969 161.894531 161.707031 161.363281 161.148438 160.804688 C 160.589844 160.246094 160.0625 159.664062 159.558594 159.050781 C 159.058594 158.441406 158.589844 157.808594 158.148438 157.152344 C 157.710938 156.496094 157.304688 155.816406 156.933594 155.121094 C 156.558594 154.425781 156.222656 153.710938 155.921875 152.980469 C 155.617188 152.25 155.351562 151.507812 155.125 150.753906 C 154.894531 149.996094 154.703125 149.230469 154.546875 148.457031 C 154.394531 147.683594 154.277344 146.902344 154.199219 146.113281 C 154.125 145.328125 154.085938 144.539062 154.085938 143.75 C 154.085938 142.960938 154.125 142.171875 154.199219 141.386719 C 154.277344 140.601562 154.394531 139.820312 154.546875 139.046875 C 154.703125 138.269531 154.894531 137.503906 155.125 136.75 C 155.351562 135.992188 155.617188 135.25 155.921875 134.519531 C 156.222656 133.789062 156.558594 133.078125 156.933594 132.382812 C 157.304688 131.683594 157.710938 131.007812 158.148438 130.351562 C 158.589844 129.695312 159.058594 129.058594 159.558594 128.449219 C 160.0625 127.839844 160.589844 127.253906 161.148438 126.695312 C 161.707031 126.136719 162.292969 125.605469 162.902344 125.105469 C 163.511719 124.605469 164.148438 124.136719 164.804688 123.695312 C 165.460938 123.257812 166.136719 122.851562 166.835938 122.480469 C 167.53125 122.105469 168.246094 121.769531 168.972656 121.46875 C 169.703125 121.164062 170.445312 120.898438 171.203125 120.667969 C 171.957031 120.441406 172.722656 120.25 173.5 120.09375 C 174.273438 119.941406 175.054688 119.824219 175.839844 119.746094 C 176.625 119.671875 177.414062 119.632812 178.203125 119.632812 C 178.996094 119.632812 179.78125 119.671875 180.570312 119.746094 C 181.355469 119.824219 182.136719 119.941406 182.910156 120.09375 C 183.683594 120.25 184.449219 120.441406 185.207031 120.667969 C 185.960938 120.898438 186.703125 121.164062 187.433594 121.46875 C 188.164062 121.769531 188.878906 122.105469 189.574219 122.480469 C 190.269531 122.851562 190.949219 123.257812 191.605469 123.695312 C 192.261719 124.136719 192.894531 124.605469 193.503906 125.105469 C 194.117188 125.605469 194.699219 126.136719 195.257812 126.695312 C 195.816406 127.253906 196.347656 127.839844 196.847656 128.449219 C 197.351562 129.058594 197.820312 129.695312 198.257812 130.351562 C 198.699219 131.007812 199.105469 131.683594 199.476562 132.382812 C 199.847656 133.078125 200.1875 133.789062 200.488281 134.519531 C 200.789062 135.25 201.054688 135.992188 201.285156 136.75 C 201.515625 137.503906 201.707031 138.269531 201.859375 139.046875 C 202.015625 139.820312 202.128906 140.601562 202.207031 141.386719 C 202.285156 142.171875 202.324219 142.960938 202.324219 143.75 Z M 202.324219 143.75 " fill-opacity="1" fill-rule="nonzero"/><path fill="#ffffff" d="M 31.039062 107.339844 C 31.039062 108.230469 30.949219 109.109375 30.777344 109.980469 C 30.605469 110.851562 30.347656 111.699219 30.007812 112.519531 C 29.667969 113.339844 29.25 114.121094 28.757812 114.859375 C 28.261719 115.597656 27.703125 116.28125 27.074219 116.910156 C 26.445312 117.539062 25.761719 118.101562 25.023438 118.59375 C 24.285156 119.085938 23.503906 119.503906 22.683594 119.84375 C 21.863281 120.183594 21.015625 120.441406 20.144531 120.613281 C 19.273438 120.789062 18.390625 120.875 17.503906 120.875 C 16.613281 120.875 15.734375 120.789062 14.863281 120.613281 C 13.992188 120.441406 13.144531 120.183594 12.324219 119.84375 C 11.503906 119.503906 10.722656 119.085938 9.984375 118.59375 C 9.246094 118.101562 8.5625 117.539062 7.933594 116.910156 C 7.304688 116.28125 6.742188 115.597656 6.25 114.859375 C 5.757812 114.121094 5.339844 113.339844 5 112.519531 C 4.660156 111.699219 4.402344 110.851562 4.230469 109.980469 C 4.054688 109.109375 3.96875 108.230469 3.96875 107.339844 C 3.96875 106.453125 4.054688 105.570312 4.230469 104.699219 C 4.402344 103.828125 4.660156 102.980469 5 102.160156 C 5.339844 101.339844 5.757812 100.558594 6.25 99.820312 C 6.742188 99.082031 7.304688 98.398438 7.933594 97.769531 C 8.5625 97.140625 9.246094 96.582031 9.984375 96.085938 C 10.722656 95.59375 11.503906 95.175781 12.324219 94.835938 C 13.144531 94.496094 13.992188 94.238281 14.863281 94.066406 C 15.734375 93.894531 16.613281 93.804688 17.503906 93.804688 C 18.390625 93.804688 19.273438 93.894531 20.144531 94.066406 C 21.015625 94.238281 21.863281 94.496094 22.683594 94.835938 C 23.503906 95.175781 24.285156 95.59375 25.023438 96.085938 C 25.761719 96.582031 26.445312 97.140625 27.074219 97.769531 C 27.703125 98.398438 28.261719 99.082031 28.757812 99.820312 C 29.25 100.558594 29.667969 101.339844 30.007812 102.160156 C 30.347656 102.980469 30.605469 103.828125 30.777344 104.699219 C 30.949219 105.570312 31.039062 106.453125 31.039062 107.339844 Z M 31.039062 107.339844 " fill-opacity="1" fill-rule="nonzero"/><path fill="#ffffff" d="M 328.703125 201.050781 C 328.703125 201.941406 328.617188 202.820312 328.441406 203.691406 C 328.269531 204.5625 328.011719 205.410156 327.671875 206.230469 C 327.332031 207.050781 326.917969 207.832031 326.421875 208.570312 C 325.929688 209.308594 325.367188 209.992188 324.738281 210.621094 C 324.109375 211.25 323.425781 211.8125 322.6875 212.304688 C 321.949219 212.800781 321.167969 213.214844 320.347656 213.554688 C 319.527344 213.894531 318.679688 214.152344 317.808594 214.324219 C 316.9375 214.5 316.058594 214.585938 315.167969 214.585938 C 314.28125 214.585938 313.398438 214.5 312.527344 214.324219 C 311.65625 214.152344 310.8125 213.894531 309.988281 213.554688 C 309.167969 213.214844 308.390625 212.800781 307.648438 212.304688 C 306.910156 211.8125 306.226562 211.25 305.597656 210.621094 C 304.96875 209.992188 304.410156 209.308594 303.914062 208.570312 C 303.421875 207.832031 303.003906 207.050781 302.664062 206.230469 C 302.324219 205.410156 302.066406 204.5625 301.894531 203.691406 C 301.722656 202.820312 301.636719 201.941406 301.636719 201.050781 C 301.636719 200.164062 301.722656 199.28125 301.894531 198.410156 C 302.066406 197.539062 302.324219 196.695312 302.664062 195.871094 C 303.003906 195.050781 303.421875 194.273438 303.914062 193.53125 C 304.410156 192.792969 304.96875 192.109375 305.597656 191.480469 C 306.226562 190.851562 306.910156 190.292969 307.648438 189.796875 C 308.390625 189.304688 309.167969 188.886719 309.988281 188.546875 C 310.8125 188.207031 311.65625 187.949219 312.527344 187.777344 C 313.398438 187.605469 314.28125 187.519531 315.167969 187.519531 C 316.058594 187.519531 316.9375 187.605469 317.808594 187.777344 C 318.679688 187.949219 319.527344 188.207031 320.347656 188.546875 C 321.167969 188.886719 321.949219 189.304688 322.6875 189.796875 C 323.425781 190.292969 324.109375 190.851562 324.738281 191.480469 C 325.367188 192.109375 325.929688 192.792969 326.421875 193.53125 C 326.917969 194.273438 327.332031 195.050781 327.671875 195.871094 C 328.011719 196.695312 328.269531 197.539062 328.441406 198.410156 C 328.617188 199.28125 328.703125 200.164062 328.703125 201.050781 Z M 328.703125 201.050781 " fill-opacity="1" fill-rule="nonzero"/><path fill="#ffffff" d="M 281.53125 35.101562 C 281.53125 35.988281 281.445312 36.871094 281.269531 37.742188 C 281.097656 38.613281 280.839844 39.460938 280.5 40.28125 C 280.160156 41.101562 279.742188 41.882812 279.25 42.621094 C 278.757812 43.359375 278.195312 44.042969 277.566406 44.671875 C 276.9375 45.300781 276.253906 45.859375 275.515625 46.355469 C 274.777344 46.847656 273.996094 47.265625 273.175781 47.605469 C 272.355469 47.945312 271.507812 48.203125 270.636719 48.375 C 269.765625 48.550781 268.886719 48.636719 267.996094 48.636719 C 267.109375 48.636719 266.226562 48.550781 265.355469 48.375 C 264.484375 48.203125 263.636719 47.945312 262.816406 47.605469 C 261.996094 47.265625 261.214844 46.847656 260.476562 46.355469 C 259.738281 45.859375 259.054688 45.300781 258.425781 44.671875 C 257.796875 44.042969 257.238281 43.359375 256.742188 42.621094 C 256.25 41.882812 255.832031 41.101562 255.492188 40.28125 C 255.152344 39.460938 254.894531 38.613281 254.722656 37.742188 C 254.550781 36.871094 254.460938 35.988281 254.460938 35.101562 C 254.460938 34.210938 254.550781 33.332031 254.722656 32.460938 C 254.894531 31.589844 255.152344 30.742188 255.492188 29.921875 C 255.832031 29.101562 256.25 28.320312 256.742188 27.582031 C 257.238281 26.84375 257.796875 26.160156 258.425781 25.53125 C 259.054688 24.902344 259.738281 24.34375 260.476562 23.847656 C 261.214844 23.355469 261.996094 22.9375 262.816406 22.597656 C 263.636719 22.257812 264.484375 22 265.355469 21.828125 C 266.226562 21.652344 267.109375 21.566406 267.996094 21.566406 C 268.886719 21.566406 269.765625 21.652344 270.636719 21.828125 C 271.507812 22 272.355469 22.257812 273.175781 22.597656 C 273.996094 22.9375 274.777344 23.355469 275.515625 23.847656 C 276.253906 24.34375 276.9375 24.902344 277.566406 25.53125 C 278.195312 26.160156 278.757812 26.84375 279.25 27.582031 C 279.742188 28.320312 280.160156 29.101562 280.5 29.921875 C 280.839844 30.742188 281.097656 31.589844 281.269531 32.460938 C 281.445312 33.332031 281.53125 34.210938 281.53125 35.101562 Z M 281.53125 35.101562 " fill-opacity="1" fill-rule="nonzero"/><path fill="#ffffff" d="M 22.703125 163.125 C 22.703125 163.867188 22.632812 164.605469 22.488281 165.339844 C 22.339844 166.070312 22.125 166.777344 21.839844 167.46875 C 21.554688 168.15625 21.207031 168.8125 20.792969 169.429688 C 20.378906 170.050781 19.90625 170.625 19.378906 171.152344 C 18.851562 171.679688 18.277344 172.148438 17.660156 172.5625 C 17.039062 172.976562 16.386719 173.328125 15.695312 173.613281 C 15.007812 173.898438 14.296875 174.113281 13.566406 174.257812 C 12.835938 174.402344 12.097656 174.476562 11.351562 174.476562 C 10.605469 174.476562 9.867188 174.402344 9.136719 174.257812 C 8.40625 174.113281 7.695312 173.898438 7.007812 173.613281 C 6.320312 173.328125 5.664062 172.976562 5.046875 172.5625 C 4.425781 172.148438 3.851562 171.679688 3.324219 171.152344 C 2.796875 170.625 2.328125 170.050781 1.914062 169.429688 C 1.5 168.8125 1.148438 168.15625 0.863281 167.46875 C 0.578125 166.777344 0.363281 166.070312 0.21875 165.339844 C 0.0742188 164.605469 0 163.867188 0 163.125 C 0 162.378906 0.0742188 161.640625 0.21875 160.910156 C 0.363281 160.175781 0.578125 159.46875 0.863281 158.777344 C 1.148438 158.089844 1.5 157.4375 1.914062 156.816406 C 2.328125 156.195312 2.796875 155.625 3.324219 155.097656 C 3.851562 154.570312 4.425781 154.097656 5.046875 153.683594 C 5.664062 153.269531 6.320312 152.921875 7.007812 152.636719 C 7.695312 152.351562 8.40625 152.132812 9.136719 151.988281 C 9.867188 151.84375 10.605469 151.769531 11.351562 151.769531 C 12.097656 151.769531 12.835938 151.84375 13.566406 151.988281 C 14.296875 152.132812 15.007812 152.351562 15.695312 152.636719 C 16.386719 152.921875 17.039062 153.269531 17.660156 153.683594 C 18.277344 154.097656 18.851562 154.570312 19.378906 155.097656 C 19.90625 155.625 20.378906 156.195312 20.792969 156.816406 C 21.207031 157.4375 21.554688 158.089844 21.839844 158.777344 C 22.125 159.46875 22.339844 160.175781 22.488281 160.910156 C 22.632812 161.640625 22.703125 162.378906 22.703125 163.125 Z M 22.703125 163.125 " fill-opacity="1" fill-rule="nonzero"/><path fill="#ffffff" d="M 55.117188 207.125 C 55.117188 207.816406 55.050781 208.5 54.917969 209.179688 C 54.78125 209.855469 54.582031 210.515625 54.316406 211.15625 C 54.050781 211.792969 53.726562 212.402344 53.34375 212.976562 C 52.960938 213.550781 52.523438 214.082031 52.035156 214.570312 C 51.546875 215.0625 51.011719 215.496094 50.4375 215.882812 C 49.863281 216.265625 49.257812 216.589844 48.617188 216.855469 C 47.976562 217.121094 47.320312 217.320312 46.640625 217.453125 C 45.964844 217.589844 45.277344 217.65625 44.585938 217.65625 C 43.894531 217.65625 43.210938 217.589844 42.53125 217.453125 C 41.851562 217.320312 41.195312 217.121094 40.554688 216.855469 C 39.917969 216.589844 39.308594 216.265625 38.734375 215.882812 C 38.160156 215.496094 37.628906 215.0625 37.140625 214.570312 C 36.648438 214.082031 36.214844 213.550781 35.828125 212.976562 C 35.445312 212.402344 35.121094 211.792969 34.855469 211.15625 C 34.589844 210.515625 34.390625 209.855469 34.257812 209.179688 C 34.121094 208.5 34.054688 207.816406 34.054688 207.125 C 34.054688 206.433594 34.121094 205.746094 34.257812 205.070312 C 34.390625 204.390625 34.589844 203.734375 34.855469 203.09375 C 35.121094 202.453125 35.445312 201.847656 35.828125 201.273438 C 36.214844 200.699219 36.648438 200.164062 37.140625 199.675781 C 37.628906 199.1875 38.160156 198.75 38.734375 198.367188 C 39.308594 197.984375 39.917969 197.65625 40.554688 197.394531 C 41.195312 197.128906 41.851562 196.929688 42.53125 196.792969 C 43.210938 196.660156 43.894531 196.59375 44.585938 196.59375 C 45.277344 196.59375 45.964844 196.660156 46.640625 196.792969 C 47.320312 196.929688 47.976562 197.128906 48.617188 197.394531 C 49.257812 197.65625 49.863281 197.984375 50.4375 198.367188 C 51.011719 198.75 51.546875 199.1875 52.035156 199.675781 C 52.523438 200.164062 52.960938 200.699219 53.34375 201.273438 C 53.726562 201.847656 54.050781 202.453125 54.316406 203.09375 C 54.582031 203.734375 54.78125 204.390625 54.917969 205.070312 C 55.050781 205.746094 55.117188 206.433594 55.117188 207.125 Z M 55.117188 207.125 " fill-opacity="1" fill-rule="nonzero"/><path fill="#ffffff" d="M 100.925781 214.648438 C 100.925781 215.34375 100.855469 216.027344 100.722656 216.707031 C 100.585938 217.382812 100.386719 218.042969 100.121094 218.679688 C 99.859375 219.320312 99.535156 219.925781 99.148438 220.5 C 98.765625 221.078125 98.328125 221.609375 97.839844 222.097656 C 97.351562 222.585938 96.820312 223.023438 96.242188 223.40625 C 95.667969 223.792969 95.0625 224.117188 94.421875 224.382812 C 93.785156 224.644531 93.125 224.84375 92.445312 224.980469 C 91.769531 225.117188 91.082031 225.183594 90.390625 225.183594 C 89.699219 225.183594 89.015625 225.117188 88.335938 224.980469 C 87.660156 224.84375 87 224.644531 86.363281 224.382812 C 85.722656 224.117188 85.117188 223.792969 84.539062 223.40625 C 83.964844 223.023438 83.433594 222.585938 82.945312 222.097656 C 82.457031 221.609375 82.019531 221.078125 81.632812 220.5 C 81.25 219.925781 80.925781 219.320312 80.660156 218.679688 C 80.398438 218.042969 80.195312 217.382812 80.0625 216.707031 C 79.925781 216.027344 79.859375 215.34375 79.859375 214.648438 C 79.859375 213.957031 79.925781 213.273438 80.0625 212.59375 C 80.195312 211.917969 80.398438 211.257812 80.660156 210.621094 C 80.925781 209.980469 81.25 209.375 81.632812 208.796875 C 82.019531 208.222656 82.457031 207.691406 82.945312 207.203125 C 83.433594 206.714844 83.964844 206.277344 84.539062 205.894531 C 85.117188 205.507812 85.722656 205.183594 86.363281 204.917969 C 87 204.65625 87.660156 204.457031 88.335938 204.320312 C 89.015625 204.183594 89.699219 204.117188 90.390625 204.117188 C 91.082031 204.117188 91.769531 204.183594 92.445312 204.320312 C 93.125 204.457031 93.785156 204.65625 94.421875 204.917969 C 95.0625 205.183594 95.667969 205.507812 96.242188 205.894531 C 96.820312 206.277344 97.351562 206.714844 97.839844 207.203125 C 98.328125 207.691406 98.765625 208.222656 99.148438 208.796875 C 99.535156 209.375 99.859375 209.980469 100.121094 210.621094 C 100.386719 211.257812 100.585938 211.917969 100.722656 212.59375 C 100.855469 213.273438 100.925781 213.957031 100.925781 214.648438 Z M 100.925781 214.648438 " fill-opacity="1" fill-rule="nonzero"/><path fill="#ffffff" d="M 252.761719 270.785156 C 252.761719 271.132812 252.726562 271.472656 252.660156 271.8125 C 252.59375 272.152344 252.492188 272.480469 252.359375 272.800781 C 252.226562 273.121094 252.066406 273.425781 251.875 273.710938 C 251.683594 274 251.464844 274.265625 251.21875 274.507812 C 250.976562 274.753906 250.707031 274.972656 250.421875 275.164062 C 250.132812 275.355469 249.832031 275.519531 249.511719 275.652344 C 249.191406 275.785156 248.863281 275.882812 248.523438 275.949219 C 248.183594 276.019531 247.84375 276.050781 247.496094 276.050781 C 247.152344 276.050781 246.808594 276.019531 246.46875 275.949219 C 246.128906 275.882812 245.800781 275.785156 245.480469 275.652344 C 245.160156 275.519531 244.859375 275.355469 244.570312 275.164062 C 244.285156 274.972656 244.015625 274.753906 243.773438 274.507812 C 243.527344 274.265625 243.308594 274 243.117188 273.710938 C 242.925781 273.425781 242.765625 273.121094 242.632812 272.800781 C 242.5 272.480469 242.398438 272.152344 242.332031 271.8125 C 242.265625 271.472656 242.230469 271.132812 242.230469 270.785156 C 242.230469 270.441406 242.265625 270.097656 242.332031 269.757812 C 242.398438 269.421875 242.5 269.089844 242.632812 268.769531 C 242.765625 268.453125 242.925781 268.148438 243.117188 267.859375 C 243.308594 267.574219 243.527344 267.308594 243.773438 267.0625 C 244.015625 266.820312 244.285156 266.601562 244.570312 266.410156 C 244.859375 266.214844 245.160156 266.054688 245.480469 265.921875 C 245.800781 265.789062 246.128906 265.691406 246.46875 265.621094 C 246.808594 265.554688 247.152344 265.519531 247.496094 265.519531 C 247.84375 265.519531 248.183594 265.554688 248.523438 265.621094 C 248.863281 265.691406 249.191406 265.789062 249.511719 265.921875 C 249.832031 266.054688 250.132812 266.214844 250.421875 266.410156 C 250.707031 266.601562 250.976562 266.820312 251.21875 267.0625 C 251.464844 267.308594 251.683594 267.574219 251.875 267.859375 C 252.066406 268.148438 252.226562 268.453125 252.359375 268.769531 C 252.492188 269.089844 252.59375 269.421875 252.660156 269.757812 C 252.726562 270.097656 252.761719 270.441406 252.761719 270.785156 Z M 252.761719 270.785156 " fill-opacity="1" fill-rule="nonzero"/><path fill="#ffffff" d="M 366.597656 123.355469 C 366.597656 123.699219 366.5625 124.042969 366.496094 124.382812 C 366.429688 124.722656 366.328125 125.050781 366.195312 125.371094 C 366.066406 125.6875 365.902344 125.992188 365.710938 126.28125 C 365.519531 126.566406 365.300781 126.832031 365.054688 127.078125 C 364.8125 127.324219 364.546875 127.539062 364.257812 127.734375 C 363.96875 127.925781 363.667969 128.085938 363.347656 128.21875 C 363.027344 128.351562 362.699219 128.453125 362.359375 128.519531 C 362.019531 128.585938 361.679688 128.621094 361.332031 128.621094 C 360.988281 128.621094 360.644531 128.585938 360.304688 128.519531 C 359.964844 128.453125 359.636719 128.351562 359.316406 128.21875 C 359 128.085938 358.695312 127.925781 358.40625 127.734375 C 358.121094 127.539062 357.855469 127.324219 357.609375 127.078125 C 357.363281 126.832031 357.148438 126.566406 356.953125 126.28125 C 356.761719 125.992188 356.601562 125.6875 356.46875 125.371094 C 356.335938 125.050781 356.234375 124.722656 356.167969 124.382812 C 356.101562 124.042969 356.066406 123.699219 356.066406 123.355469 C 356.066406 123.007812 356.101562 122.667969 356.167969 122.328125 C 356.234375 121.988281 356.335938 121.660156 356.46875 121.339844 C 356.601562 121.019531 356.761719 120.71875 356.953125 120.429688 C 357.148438 120.140625 357.363281 119.875 357.609375 119.632812 C 357.855469 119.386719 358.121094 119.167969 358.40625 118.976562 C 358.695312 118.785156 359 118.621094 359.316406 118.492188 C 359.636719 118.359375 359.964844 118.257812 360.304688 118.191406 C 360.644531 118.125 360.988281 118.089844 361.332031 118.089844 C 361.679688 118.089844 362.019531 118.125 362.359375 118.191406 C 362.699219 118.257812 363.027344 118.359375 363.347656 118.492188 C 363.667969 118.621094 363.96875 118.785156 364.257812 118.976562 C 364.546875 119.167969 364.8125 119.386719 365.054688 119.632812 C 365.300781 119.875 365.519531 120.140625 365.710938 120.429688 C 365.902344 120.71875 366.066406 121.019531 366.195312 121.339844 C 366.328125 121.660156 366.429688 121.988281 366.496094 122.328125 C 366.5625 122.667969 366.597656 123.007812 366.597656 123.355469 Z M 366.597656 123.355469 " fill-opacity="1" fill-rule="nonzero"/><g clip-path="url(#b5755c8432)"><path fill="#ffffff" d="M 181.597656 23.21875 C 181.597656 23.5625 181.5625 23.90625 181.496094 24.246094 C 181.429688 24.585938 181.328125 24.914062 181.195312 25.234375 C 181.066406 25.550781 180.902344 25.855469 180.710938 26.144531 C 180.519531 26.429688 180.300781 26.695312 180.054688 26.941406 C 179.8125 27.1875 179.546875 27.402344 179.257812 27.597656 C 178.96875 27.789062 178.667969 27.949219 178.347656 28.082031 C 178.027344 28.214844 177.699219 28.316406 177.359375 28.382812 C 177.019531 28.449219 176.679688 28.484375 176.332031 28.484375 C 175.988281 28.484375 175.644531 28.449219 175.304688 28.382812 C 174.964844 28.316406 174.636719 28.214844 174.316406 28.082031 C 173.996094 27.949219 173.695312 27.789062 173.40625 27.597656 C 173.121094 27.402344 172.851562 27.1875 172.609375 26.941406 C 172.363281 26.695312 172.144531 26.429688 171.953125 26.144531 C 171.761719 25.855469 171.601562 25.550781 171.46875 25.234375 C 171.335938 24.914062 171.234375 24.585938 171.167969 24.246094 C 171.101562 23.90625 171.066406 23.5625 171.066406 23.21875 C 171.066406 22.871094 171.101562 22.53125 171.167969 22.191406 C 171.234375 21.851562 171.335938 21.523438 171.46875 21.203125 C 171.601562 20.882812 171.761719 20.582031 171.953125 20.292969 C 172.144531 20.003906 172.363281 19.738281 172.609375 19.496094 C 172.851562 19.25 173.121094 19.03125 173.40625 18.839844 C 173.695312 18.648438 173.996094 18.484375 174.316406 18.351562 C 174.636719 18.222656 174.964844 18.121094 175.304688 18.054688 C 175.644531 17.988281 175.988281 17.953125 176.332031 17.953125 C 176.679688 17.953125 177.019531 17.988281 177.359375 18.054688 C 177.699219 18.121094 178.027344 18.222656 178.347656 18.351562 C 178.667969 18.484375 178.96875 18.648438 179.257812 18.839844 C 179.546875 19.03125 179.8125 19.25 180.054688 19.496094 C 180.300781 19.738281 180.519531 20.003906 180.710938 20.292969 C 180.902344 20.582031 181.066406 20.882812 181.195312 21.203125 C 181.328125 21.523438 181.429688 21.851562 181.496094 22.191406 C 181.5625 22.53125 181.597656 22.871094 181.597656 23.21875 Z M 181.597656 23.21875 " fill-opacity="1" fill-rule="nonzero"/></g><path fill="#ffffff" d="M 347.488281 85.097656 C 347.488281 85.597656 347.4375 86.089844 347.339844 86.578125 C 347.242188 87.066406 347.101562 87.542969 346.910156 88.003906 C 346.71875 88.464844 346.484375 88.898438 346.207031 89.3125 C 345.929688 89.730469 345.617188 90.113281 345.265625 90.464844 C 344.914062 90.816406 344.53125 91.132812 344.113281 91.40625 C 343.699219 91.683594 343.265625 91.917969 342.804688 92.109375 C 342.34375 92.300781 341.867188 92.441406 341.378906 92.539062 C 340.890625 92.636719 340.398438 92.6875 339.898438 92.6875 C 339.402344 92.6875 338.910156 92.636719 338.417969 92.539062 C 337.929688 92.441406 337.457031 92.300781 336.996094 92.109375 C 336.535156 91.917969 336.097656 91.683594 335.683594 91.40625 C 335.269531 91.132812 334.886719 90.816406 334.535156 90.464844 C 334.183594 90.113281 333.867188 89.730469 333.589844 89.3125 C 333.316406 88.898438 333.082031 88.464844 332.890625 88.003906 C 332.699219 87.542969 332.554688 87.066406 332.457031 86.578125 C 332.363281 86.089844 332.3125 85.597656 332.3125 85.097656 C 332.3125 84.601562 332.363281 84.109375 332.457031 83.621094 C 332.554688 83.128906 332.699219 82.65625 332.890625 82.195312 C 333.082031 81.734375 333.316406 81.296875 333.589844 80.882812 C 333.867188 80.46875 334.183594 80.085938 334.535156 79.734375 C 334.886719 79.382812 335.269531 79.066406 335.683594 78.792969 C 336.097656 78.515625 336.535156 78.28125 336.996094 78.089844 C 337.457031 77.898438 337.929688 77.753906 338.417969 77.65625 C 338.910156 77.5625 339.402344 77.511719 339.898438 77.511719 C 340.398438 77.511719 340.890625 77.5625 341.378906 77.65625 C 341.867188 77.753906 342.34375 77.898438 342.804688 78.089844 C 343.265625 78.28125 343.699219 78.515625 344.113281 78.792969 C 344.53125 79.066406 344.914062 79.382812 345.265625 79.734375 C 345.617188 80.085938 345.929688 80.46875 346.207031 80.882812 C 346.484375 81.296875 346.71875 81.734375 346.910156 82.195312 C 347.101562 82.65625 347.242188 83.128906 347.339844 83.621094 C 347.4375 84.109375 347.488281 84.601562 347.488281 85.097656 Z M 347.488281 85.097656 " fill-opacity="1" fill-rule="nonzero"/><path fill="#ffffff" d="M 226.121094 87.929688 C 226.121094 88.425781 226.070312 88.921875 225.972656 89.410156 C 225.875 89.898438 225.734375 90.371094 225.542969 90.832031 C 225.351562 91.292969 225.117188 91.730469 224.839844 92.144531 C 224.5625 92.558594 224.25 92.941406 223.898438 93.292969 C 223.546875 93.644531 223.164062 93.960938 222.746094 94.238281 C 222.332031 94.515625 221.898438 94.75 221.4375 94.9375 C 220.976562 95.128906 220.5 95.273438 220.011719 95.371094 C 219.523438 95.46875 219.03125 95.515625 218.53125 95.515625 C 218.035156 95.515625 217.542969 95.46875 217.050781 95.371094 C 216.5625 95.273438 216.089844 95.128906 215.628906 94.9375 C 215.167969 94.75 214.730469 94.515625 214.316406 94.238281 C 213.902344 93.960938 213.519531 93.644531 213.167969 93.292969 C 212.816406 92.941406 212.5 92.558594 212.222656 92.144531 C 211.949219 91.730469 211.714844 91.292969 211.523438 90.832031 C 211.332031 90.371094 211.1875 89.898438 211.089844 89.410156 C 210.996094 88.921875 210.945312 88.425781 210.945312 87.929688 C 210.945312 87.429688 210.996094 86.9375 211.089844 86.449219 C 211.1875 85.960938 211.332031 85.484375 211.523438 85.027344 C 211.714844 84.566406 211.949219 84.128906 212.222656 83.714844 C 212.5 83.300781 212.816406 82.917969 213.167969 82.566406 C 213.519531 82.210938 213.902344 81.898438 214.316406 81.621094 C 214.730469 81.34375 215.167969 81.109375 215.628906 80.921875 C 216.089844 80.730469 216.5625 80.585938 217.050781 80.488281 C 217.542969 80.390625 218.035156 80.34375 218.53125 80.34375 C 219.03125 80.34375 219.523438 80.390625 220.011719 80.488281 C 220.5 80.585938 220.976562 80.730469 221.4375 80.921875 C 221.898438 81.109375 222.332031 81.34375 222.746094 81.621094 C 223.164062 81.898438 223.546875 82.210938 223.898438 82.566406 C 224.25 82.917969 224.5625 83.300781 224.839844 83.714844 C 225.117188 84.128906 225.351562 84.566406 225.542969 85.027344 C 225.734375 85.484375 225.875 85.960938 225.972656 86.449219 C 226.070312 86.9375 226.121094 87.429688 226.121094 87.929688 Z M 226.121094 87.929688 " fill-opacity="1" fill-rule="nonzero"/><path fill="#ffffff" d="M 105.566406 140.335938 C 105.566406 140.832031 105.515625 141.328125 105.421875 141.816406 C 105.324219 142.304688 105.179688 142.777344 104.988281 143.238281 C 104.796875 143.699219 104.5625 144.136719 104.289062 144.550781 C 104.011719 144.964844 103.695312 145.347656 103.34375 145.699219 C 102.992188 146.050781 102.609375 146.367188 102.195312 146.644531 C 101.78125 146.921875 101.34375 147.152344 100.882812 147.34375 C 100.421875 147.535156 99.949219 147.679688 99.460938 147.777344 C 98.96875 147.875 98.476562 147.921875 97.980469 147.921875 C 97.480469 147.921875 96.988281 147.875 96.5 147.777344 C 96.011719 147.679688 95.535156 147.535156 95.074219 147.34375 C 94.617188 147.152344 94.179688 146.921875 93.765625 146.644531 C 93.351562 146.367188 92.964844 146.050781 92.613281 145.699219 C 92.261719 145.347656 91.949219 144.964844 91.671875 144.550781 C 91.394531 144.136719 91.160156 143.699219 90.96875 143.238281 C 90.777344 142.777344 90.636719 142.304688 90.539062 141.816406 C 90.441406 141.328125 90.390625 140.832031 90.390625 140.335938 C 90.390625 139.835938 90.441406 139.34375 90.539062 138.855469 C 90.636719 138.367188 90.777344 137.890625 90.96875 137.433594 C 91.160156 136.972656 91.394531 136.535156 91.671875 136.121094 C 91.949219 135.707031 92.261719 135.324219 92.613281 134.96875 C 92.964844 134.617188 93.351562 134.304688 93.765625 134.027344 C 94.179688 133.75 94.617188 133.515625 95.074219 133.324219 C 95.535156 133.136719 96.011719 132.992188 96.5 132.894531 C 96.988281 132.796875 97.480469 132.75 97.980469 132.75 C 98.476562 132.75 98.96875 132.796875 99.460938 132.894531 C 99.949219 132.992188 100.421875 133.136719 100.882812 133.324219 C 101.34375 133.515625 101.78125 133.75 102.195312 134.027344 C 102.609375 134.304688 102.992188 134.617188 103.34375 134.96875 C 103.695312 135.324219 104.011719 135.707031 104.289062 136.121094 C 104.5625 136.535156 104.796875 136.972656 104.988281 137.433594 C 105.179688 137.890625 105.324219 138.367188 105.421875 138.855469 C 105.515625 139.34375 105.566406 139.835938 105.566406 140.335938 Z M 105.566406 140.335938 " fill-opacity="1" fill-rule="nonzero"/><path fill="#ffffff" d="M 181.597656 251.921875 C 181.597656 252.613281 181.53125 253.296875 181.398438 253.976562 C 181.261719 254.652344 181.0625 255.3125 180.796875 255.953125 C 180.53125 256.589844 180.207031 257.199219 179.824219 257.773438 C 179.441406 258.347656 179.003906 258.878906 178.515625 259.367188 C 178.023438 259.859375 177.492188 260.292969 176.917969 260.679688 C 176.34375 261.0625 175.734375 261.386719 175.097656 261.652344 C 174.457031 261.917969 173.800781 262.117188 173.121094 262.25 C 172.441406 262.386719 171.757812 262.453125 171.066406 262.453125 C 170.375 262.453125 169.691406 262.386719 169.011719 262.25 C 168.332031 262.117188 167.675781 261.917969 167.035156 261.652344 C 166.398438 261.386719 165.789062 261.0625 165.214844 260.679688 C 164.640625 260.292969 164.109375 259.859375 163.617188 259.367188 C 163.128906 258.878906 162.695312 258.347656 162.308594 257.773438 C 161.925781 257.199219 161.601562 256.589844 161.335938 255.953125 C 161.070312 255.3125 160.871094 254.652344 160.738281 253.976562 C 160.601562 253.296875 160.535156 252.613281 160.535156 251.921875 C 160.535156 251.230469 160.601562 250.542969 160.738281 249.867188 C 160.871094 249.1875 161.070312 248.527344 161.335938 247.890625 C 161.601562 247.25 161.925781 246.644531 162.308594 246.070312 C 162.695312 245.496094 163.128906 244.960938 163.617188 244.472656 C 164.109375 243.984375 164.640625 243.546875 165.214844 243.164062 C 165.789062 242.777344 166.398438 242.453125 167.035156 242.191406 C 167.675781 241.925781 168.332031 241.726562 169.011719 241.589844 C 169.691406 241.457031 170.375 241.386719 171.066406 241.386719 C 171.757812 241.386719 172.441406 241.457031 173.121094 241.589844 C 173.800781 241.726562 174.457031 241.925781 175.097656 242.191406 C 175.734375 242.453125 176.34375 242.777344 176.917969 243.164062 C 177.492188 243.546875 178.023438 243.984375 178.515625 244.472656 C 179.003906 244.960938 179.441406 245.496094 179.824219 246.070312 C 180.207031 246.644531 180.53125 247.25 180.796875 247.890625 C 181.0625 248.527344 181.261719 249.1875 181.398438 249.867188 C 181.53125 250.542969 181.597656 251.230469 181.597656 251.921875 Z M 181.597656 251.921875 " fill-opacity="1" fill-rule="nonzero"/><path fill="#ffffff" d="M 276.398438 228.113281 C 276.398438 228.664062 276.34375 229.210938 276.234375 229.753906 C 276.128906 230.292969 275.96875 230.820312 275.757812 231.328125 C 275.546875 231.839844 275.289062 232.324219 274.980469 232.78125 C 274.675781 233.238281 274.328125 233.664062 273.9375 234.054688 C 273.546875 234.445312 273.121094 234.792969 272.664062 235.097656 C 272.203125 235.40625 271.722656 235.664062 271.210938 235.875 C 270.703125 236.085938 270.175781 236.246094 269.636719 236.351562 C 269.09375 236.460938 268.546875 236.515625 267.996094 236.515625 C 267.445312 236.515625 266.898438 236.460938 266.359375 236.351562 C 265.816406 236.246094 265.292969 236.085938 264.78125 235.875 C 264.273438 235.664062 263.789062 235.40625 263.328125 235.097656 C 262.871094 234.792969 262.445312 234.445312 262.054688 234.054688 C 261.667969 233.664062 261.316406 233.238281 261.011719 232.78125 C 260.707031 232.324219 260.445312 231.839844 260.234375 231.328125 C 260.023438 230.820312 259.863281 230.292969 259.757812 229.753906 C 259.648438 229.210938 259.597656 228.664062 259.597656 228.113281 C 259.597656 227.5625 259.648438 227.015625 259.757812 226.476562 C 259.863281 225.933594 260.023438 225.410156 260.234375 224.898438 C 260.445312 224.390625 260.707031 223.90625 261.011719 223.445312 C 261.316406 222.988281 261.667969 222.5625 262.054688 222.175781 C 262.445312 221.785156 262.871094 221.4375 263.328125 221.128906 C 263.789062 220.824219 264.273438 220.5625 264.78125 220.351562 C 265.292969 220.140625 265.816406 219.984375 266.359375 219.875 C 266.898438 219.765625 267.445312 219.714844 267.996094 219.714844 C 268.546875 219.714844 269.09375 219.765625 269.636719 219.875 C 270.175781 219.984375 270.703125 220.140625 271.210938 220.351562 C 271.722656 220.5625 272.203125 220.824219 272.664062 221.128906 C 273.121094 221.4375 273.546875 221.785156 273.9375 222.175781 C 274.328125 222.5625 274.675781 222.988281 274.980469 223.445312 C 275.289062 223.90625 275.546875 224.390625 275.757812 224.898438 C 275.96875 225.410156 276.128906 225.933594 276.234375 226.476562 C 276.34375 227.015625 276.398438 227.5625 276.398438 228.113281 Z M 276.398438 228.113281 " fill-opacity="1" fill-rule="nonzero"/><path fill="#ffffff" d="M 375 176.453125 C 375 177.003906 374.945312 177.550781 374.839844 178.09375 C 374.730469 178.632812 374.570312 179.160156 374.359375 179.667969 C 374.148438 180.179688 373.890625 180.664062 373.585938 181.121094 C 373.277344 181.578125 372.929688 182.003906 372.539062 182.394531 C 372.148438 182.785156 371.726562 183.132812 371.265625 183.4375 C 370.808594 183.746094 370.324219 184.003906 369.8125 184.214844 C 369.304688 184.425781 368.78125 184.585938 368.238281 184.691406 C 367.699219 184.800781 367.152344 184.855469 366.597656 184.855469 C 366.046875 184.855469 365.5 184.800781 364.960938 184.691406 C 364.417969 184.585938 363.894531 184.425781 363.386719 184.214844 C 362.875 184.003906 362.390625 183.746094 361.933594 183.4375 C 361.472656 183.132812 361.050781 182.785156 360.660156 182.394531 C 360.269531 182.003906 359.921875 181.578125 359.613281 181.121094 C 359.308594 180.664062 359.050781 180.179688 358.839844 179.667969 C 358.628906 179.160156 358.46875 178.632812 358.359375 178.09375 C 358.253906 177.550781 358.199219 177.003906 358.199219 176.453125 C 358.199219 175.902344 358.253906 175.355469 358.359375 174.816406 C 358.46875 174.273438 358.628906 173.75 358.839844 173.238281 C 359.050781 172.730469 359.308594 172.246094 359.613281 171.785156 C 359.921875 171.328125 360.269531 170.902344 360.660156 170.515625 C 361.050781 170.125 361.472656 169.777344 361.933594 169.46875 C 362.390625 169.164062 362.875 168.902344 363.386719 168.691406 C 363.894531 168.480469 364.417969 168.324219 364.960938 168.214844 C 365.5 168.109375 366.046875 168.054688 366.597656 168.054688 C 367.152344 168.054688 367.699219 168.109375 368.238281 168.214844 C 368.78125 168.324219 369.304688 168.480469 369.8125 168.691406 C 370.324219 168.902344 370.808594 169.164062 371.265625 169.46875 C 371.726562 169.777344 372.148438 170.125 372.539062 170.515625 C 372.929688 170.902344 373.277344 171.328125 373.585938 171.785156 C 373.890625 172.246094 374.148438 172.730469 374.359375 173.238281 C 374.570312 173.75 374.730469 174.273438 374.839844 174.816406 C 374.945312 175.355469 375 175.902344 375 176.453125 Z M 375 176.453125 " fill-opacity="1" fill-rule="nonzero"/><path fill="#ffffff" d="M 242.929688 298.863281 C 242.929688 299.554688 242.863281 300.242188 242.726562 300.917969 C 242.59375 301.597656 242.394531 302.253906 242.128906 302.894531 C 241.863281 303.535156 241.539062 304.140625 241.15625 304.714844 C 240.769531 305.289062 240.335938 305.824219 239.84375 306.3125 C 239.355469 306.800781 238.824219 307.238281 238.25 307.621094 C 237.675781 308.003906 237.066406 308.332031 236.429688 308.59375 C 235.789062 308.859375 235.128906 309.058594 234.453125 309.195312 C 233.773438 309.328125 233.089844 309.398438 232.398438 309.398438 C 231.707031 309.398438 231.019531 309.328125 230.34375 309.195312 C 229.664062 309.058594 229.007812 308.859375 228.367188 308.59375 C 227.726562 308.332031 227.121094 308.003906 226.546875 307.621094 C 225.972656 307.238281 225.4375 306.800781 224.949219 306.3125 C 224.460938 305.824219 224.023438 305.289062 223.640625 304.714844 C 223.257812 304.140625 222.929688 303.535156 222.667969 302.894531 C 222.402344 302.253906 222.203125 301.597656 222.066406 300.917969 C 221.933594 300.242188 221.863281 299.554688 221.863281 298.863281 C 221.863281 298.171875 221.933594 297.488281 222.066406 296.808594 C 222.203125 296.132812 222.402344 295.472656 222.667969 294.832031 C 222.929688 294.195312 223.257812 293.585938 223.640625 293.011719 C 224.023438 292.4375 224.460938 291.90625 224.949219 291.417969 C 225.4375 290.925781 225.972656 290.492188 226.546875 290.105469 C 227.121094 289.722656 227.726562 289.398438 228.367188 289.132812 C 229.007812 288.867188 229.664062 288.667969 230.34375 288.535156 C 231.019531 288.398438 231.707031 288.332031 232.398438 288.332031 C 233.089844 288.332031 233.773438 288.398438 234.453125 288.535156 C 235.128906 288.667969 235.789062 288.867188 236.429688 289.132812 C 237.066406 289.398438 237.675781 289.722656 238.25 290.105469 C 238.824219 290.492188 239.355469 290.925781 239.84375 291.417969 C 240.335938 291.90625 240.769531 292.4375 241.15625 293.011719 C 241.539062 293.585938 241.863281 294.195312 242.128906 294.832031 C 242.394531 295.472656 242.59375 296.132812 242.726562 296.808594 C 242.863281 297.488281 242.929688 298.171875 242.929688 298.863281 Z M 242.929688 298.863281 " fill-opacity="1" fill-rule="nonzero"/><path fill="#ffffff" d="M 331.390625 262.453125 C 331.390625 263.144531 331.324219 263.828125 331.1875 264.507812 C 331.054688 265.1875 330.851562 265.84375 330.589844 266.484375 C 330.324219 267.121094 330 267.730469 329.617188 268.304688 C 329.230469 268.878906 328.792969 269.410156 328.304688 269.902344 C 327.816406 270.390625 327.285156 270.828125 326.710938 271.210938 C 326.132812 271.59375 325.527344 271.917969 324.890625 272.183594 C 324.25 272.449219 323.589844 272.648438 322.914062 272.785156 C 322.234375 272.917969 321.550781 272.984375 320.859375 272.984375 C 320.167969 272.984375 319.480469 272.917969 318.804688 272.785156 C 318.125 272.648438 317.464844 272.449219 316.828125 272.183594 C 316.1875 271.917969 315.582031 271.59375 315.007812 271.210938 C 314.429688 270.828125 313.898438 270.390625 313.410156 269.902344 C 312.921875 269.410156 312.484375 268.878906 312.101562 268.304688 C 311.714844 267.730469 311.390625 267.121094 311.128906 266.484375 C 310.863281 265.84375 310.664062 265.1875 310.527344 264.507812 C 310.394531 263.828125 310.324219 263.144531 310.324219 262.453125 C 310.324219 261.761719 310.394531 261.078125 310.527344 260.398438 C 310.664062 259.71875 310.863281 259.0625 311.128906 258.421875 C 311.390625 257.785156 311.714844 257.175781 312.101562 256.601562 C 312.484375 256.027344 312.921875 255.496094 313.410156 255.003906 C 313.898438 254.515625 314.429688 254.082031 315.007812 253.695312 C 315.582031 253.3125 316.1875 252.988281 316.828125 252.722656 C 317.464844 252.457031 318.125 252.257812 318.804688 252.125 C 319.480469 251.988281 320.167969 251.921875 320.859375 251.921875 C 321.550781 251.921875 322.234375 251.988281 322.914062 252.125 C 323.589844 252.257812 324.25 252.457031 324.890625 252.722656 C 325.527344 252.988281 326.132812 253.3125 326.710938 253.695312 C 327.285156 254.082031 327.816406 254.515625 328.304688 255.003906 C 328.792969 255.496094 329.230469 256.027344 329.617188 256.601562 C 330 257.175781 330.324219 257.785156 330.589844 258.421875 C 330.851562 259.0625 331.054688 259.71875 331.1875 260.398438 C 331.324219 261.078125 331.390625 261.761719 331.390625 262.453125 Z M 331.390625 262.453125 " fill-opacity="1" fill-rule="nonzero"/><path fill="#ffffff" d="M 251.894531 181.253906 C 251.894531 181.945312 251.828125 182.628906 251.691406 183.308594 C 251.558594 183.988281 251.359375 184.644531 251.09375 185.285156 C 250.828125 185.921875 250.503906 186.53125 250.121094 187.105469 C 249.734375 187.679688 249.300781 188.210938 248.808594 188.703125 C 248.320312 189.191406 247.789062 189.628906 247.214844 190.011719 C 246.640625 190.394531 246.03125 190.71875 245.394531 190.984375 C 244.753906 191.25 244.097656 191.449219 243.417969 191.585938 C 242.738281 191.71875 242.054688 191.785156 241.363281 191.785156 C 240.671875 191.785156 239.984375 191.71875 239.308594 191.585938 C 238.628906 191.449219 237.972656 191.25 237.332031 190.984375 C 236.691406 190.71875 236.085938 190.394531 235.511719 190.011719 C 234.9375 189.628906 234.402344 189.191406 233.914062 188.703125 C 233.425781 188.210938 232.988281 187.679688 232.605469 187.105469 C 232.222656 186.53125 231.898438 185.921875 231.632812 185.285156 C 231.367188 184.644531 231.167969 183.988281 231.03125 183.308594 C 230.898438 182.628906 230.832031 181.945312 230.832031 181.253906 C 230.832031 180.5625 230.898438 179.878906 231.03125 179.199219 C 231.167969 178.519531 231.367188 177.863281 231.632812 177.222656 C 231.898438 176.585938 232.222656 175.976562 232.605469 175.402344 C 232.988281 174.828125 233.425781 174.296875 233.914062 173.804688 C 234.402344 173.316406 234.9375 172.882812 235.511719 172.496094 C 236.085938 172.113281 236.691406 171.789062 237.332031 171.523438 C 237.972656 171.257812 238.628906 171.058594 239.308594 170.925781 C 239.984375 170.789062 240.671875 170.722656 241.363281 170.722656 C 242.054688 170.722656 242.738281 170.789062 243.417969 170.925781 C 244.097656 171.058594 244.753906 171.257812 245.394531 171.523438 C 246.03125 171.789062 246.640625 172.113281 247.214844 172.496094 C 247.789062 172.882812 248.320312 173.316406 248.808594 173.804688 C 249.300781 174.296875 249.734375 174.828125 250.121094 175.402344 C 250.503906 175.976562 250.828125 176.585938 251.09375 177.222656 C 251.359375 177.863281 251.558594 178.519531 251.691406 179.199219 C 251.828125 179.878906 251.894531 180.5625 251.894531 181.253906 Z M 251.894531 181.253906 " fill-opacity="1" fill-rule="nonzero"/><path fill="#ffffff" d="M 147.765625 69.808594 C 147.765625 70.5 147.699219 71.1875 147.5625 71.863281 C 147.429688 72.542969 147.230469 73.203125 146.964844 73.839844 C 146.699219 74.480469 146.375 75.085938 145.992188 75.660156 C 145.609375 76.238281 145.171875 76.769531 144.683594 77.257812 C 144.191406 77.746094 143.660156 78.183594 143.085938 78.566406 C 142.511719 78.953125 141.902344 79.277344 141.265625 79.539062 C 140.625 79.804688 139.96875 80.003906 139.289062 80.140625 C 138.609375 80.273438 137.925781 80.34375 137.234375 80.34375 C 136.542969 80.34375 135.859375 80.273438 135.179688 80.140625 C 134.5 80.003906 133.84375 79.804688 133.203125 79.539062 C 132.566406 79.277344 131.957031 78.953125 131.382812 78.566406 C 130.808594 78.183594 130.277344 77.746094 129.785156 77.257812 C 129.296875 76.769531 128.859375 76.238281 128.476562 75.660156 C 128.09375 75.085938 127.769531 74.480469 127.503906 73.839844 C 127.238281 73.203125 127.039062 72.542969 126.902344 71.863281 C 126.769531 71.1875 126.703125 70.5 126.703125 69.808594 C 126.703125 69.117188 126.769531 68.433594 126.902344 67.753906 C 127.039062 67.078125 127.238281 66.417969 127.503906 65.777344 C 127.769531 65.140625 128.09375 64.535156 128.476562 63.957031 C 128.859375 63.382812 129.296875 62.851562 129.785156 62.363281 C 130.277344 61.875 130.808594 61.4375 131.382812 61.050781 C 131.957031 60.667969 132.566406 60.34375 133.203125 60.078125 C 133.84375 59.816406 134.5 59.613281 135.179688 59.480469 C 135.859375 59.34375 136.542969 59.277344 137.234375 59.277344 C 137.925781 59.277344 138.609375 59.34375 139.289062 59.480469 C 139.96875 59.613281 140.625 59.816406 141.265625 60.078125 C 141.902344 60.34375 142.511719 60.667969 143.085938 61.050781 C 143.660156 61.4375 144.191406 61.875 144.683594 62.363281 C 145.171875 62.851562 145.609375 63.382812 145.992188 63.957031 C 146.375 64.535156 146.699219 65.140625 146.964844 65.777344 C 147.230469 66.417969 147.429688 67.078125 147.5625 67.753906 C 147.699219 68.433594 147.765625 69.117188 147.765625 69.808594 Z M 147.765625 69.808594 " fill-opacity="1" fill-rule="nonzero"/><path fill="#ffffff" d="M 139.277344 256.964844 C 139.277344 257.792969 139.195312 258.609375 139.035156 259.417969 C 138.875 260.230469 138.636719 261.015625 138.320312 261.777344 C 138.003906 262.542969 137.617188 263.265625 137.15625 263.953125 C 136.699219 264.640625 136.175781 265.273438 135.59375 265.859375 C 135.007812 266.441406 134.375 266.964844 133.6875 267.421875 C 133 267.882812 132.277344 268.269531 131.515625 268.585938 C 130.75 268.898438 129.964844 269.140625 129.15625 269.300781 C 128.34375 269.460938 127.527344 269.542969 126.703125 269.542969 C 125.875 269.542969 125.058594 269.460938 124.25 269.300781 C 123.4375 269.140625 122.652344 268.898438 121.890625 268.585938 C 121.125 268.269531 120.402344 267.882812 119.714844 267.421875 C 119.027344 266.964844 118.394531 266.441406 117.808594 265.859375 C 117.226562 265.273438 116.703125 264.640625 116.246094 263.953125 C 115.789062 263.265625 115.398438 262.542969 115.085938 261.777344 C 114.769531 261.015625 114.53125 260.230469 114.367188 259.417969 C 114.207031 258.609375 114.125 257.792969 114.125 256.964844 C 114.125 256.140625 114.207031 255.324219 114.367188 254.511719 C 114.53125 253.703125 114.769531 252.917969 115.085938 252.15625 C 115.398438 251.390625 115.789062 250.667969 116.246094 249.980469 C 116.703125 249.292969 117.226562 248.660156 117.808594 248.074219 C 118.394531 247.492188 119.027344 246.96875 119.714844 246.511719 C 120.402344 246.050781 121.125 245.664062 121.890625 245.347656 C 122.652344 245.03125 123.4375 244.792969 124.25 244.632812 C 125.058594 244.472656 125.875 244.390625 126.703125 244.390625 C 127.527344 244.390625 128.34375 244.472656 129.15625 244.632812 C 129.964844 244.792969 130.75 245.03125 131.515625 245.347656 C 132.277344 245.664062 133 246.050781 133.6875 246.511719 C 134.375 246.96875 135.007812 247.492188 135.59375 248.074219 C 136.175781 248.660156 136.699219 249.292969 137.15625 249.980469 C 137.617188 250.667969 138.003906 251.390625 138.320312 252.15625 C 138.636719 252.917969 138.875 253.703125 139.035156 254.511719 C 139.195312 255.324219 139.277344 256.140625 139.277344 256.964844 Z M 139.277344 256.964844 " fill-opacity="1" fill-rule="nonzero"/><path fill="#ffffff" d="M 278.09375 352.757812 L 231.074219 300.277344 L 171.675781 253.945312 L 125.90625 260.339844 L 89.394531 216.46875 L 42.304688 210.546875 L 9.355469 160.867188 L 15.65625 105.53125 L 58.742188 57.984375 L 61.601562 60.574219 L 19.351562 107.203125 L 13.347656 159.90625 L 44.542969 206.941406 L 91.386719 212.832031 L 127.496094 256.222656 L 172.761719 249.898438 L 233.71875 297.449219 L 268.269531 336.007812 L 244.875 267.851562 L 321.257812 260.632812 L 366.484375 173.722656 L 359.472656 122.5625 L 338.433594 85.054688 L 265.410156 34.402344 L 176.519531 25.175781 L 64.738281 58.914062 L 63.625 55.21875 L 176.144531 21.261719 L 176.53125 21.300781 L 266.796875 30.664062 L 267.203125 30.949219 L 341.363281 82.390625 L 363.195312 121.3125 L 370.476562 174.414062 L 323.707031 264.277344 L 250.113281 271.230469 Z M 278.09375 352.757812 " fill-opacity="1" fill-rule="nonzero"/><path fill="#ffffff" d="M 245.78125 268.648438 L 265.21875 230.617188 L 268.65625 232.375 L 249.21875 270.40625 Z M 245.78125 268.648438 " fill-opacity="1" fill-rule="nonzero"/><path fill="#ffffff" d="M 266.121094 230.722656 L 239.085938 179.3125 L 286.78125 115.699219 L 320.421875 201.953125 Z M 243.636719 179.675781 L 267.738281 225.503906 L 315.578125 200.152344 L 285.707031 123.5625 Z M 243.636719 179.675781 " fill-opacity="1" fill-rule="nonzero"/><path fill="#ffffff" d="M 323.246094 266.46875 L 267.625 230.175781 L 175.472656 250.847656 L 174.628906 247.082031 L 268.367188 226.054688 L 318.472656 258.746094 L 311.679688 199.890625 L 365.785156 174.707031 L 367.414062 178.203125 L 315.828125 202.214844 Z M 323.246094 266.46875 " fill-opacity="1" fill-rule="nonzero"/><path fill="#ffffff" d="M 285.777344 122.824219 L 287.9375 119.628906 L 369.554688 174.851562 L 367.394531 178.050781 Z M 285.777344 122.824219 " fill-opacity="1" fill-rule="nonzero"/><path fill="#ffffff" d="M 287.183594 119.660156 L 338.804688 83.53125 L 341.019531 86.695312 L 289.394531 122.820312 Z M 287.183594 119.660156 " fill-opacity="1" fill-rule="nonzero"/><path fill="#ffffff" d="M 183.863281 142.710938 L 183.222656 138.90625 L 287.535156 121.425781 L 361.527344 121.425781 L 361.527344 125.285156 L 287.855469 125.285156 Z M 183.863281 142.710938 " fill-opacity="1" fill-rule="nonzero"/><path fill="#ffffff" d="M 241.285156 182.902344 L 171.355469 140.332031 L 171.265625 140.261719 L 64.546875 56.652344 L 138.621094 64.476562 L 176.550781 19.988281 L 218.386719 85.082031 L 220.710938 83.625 L 269.128906 25.820312 L 286.164062 114.734375 L 282.375 115.457031 L 266.867188 34.527344 L 223.273438 86.570312 L 220.472656 88.324219 L 221.214844 89.480469 L 219.320312 89.050781 L 214.558594 92.03125 L 186.261719 126.695312 L 171.96875 135.917969 L 173.554688 137.160156 L 243.292969 179.609375 Z M 77.496094 61.902344 L 168.140625 132.917969 L 131.769531 67.632812 Z M 137.792969 70.519531 L 171.75 131.464844 L 183.65625 123.785156 L 211.972656 89.097656 L 213.984375 87.839844 Z M 141.242188 67.347656 L 212.863281 83.625 L 176.117188 26.449219 Z M 141.242188 67.347656 " fill-opacity="1" fill-rule="nonzero"/><path fill="#ffffff" d="M 169.136719 250.558594 L 167.257812 145.550781 L 96.671875 140.589844 L 61.464844 58.832031 L 65.007812 57.304688 L 99.285156 136.90625 L 171.050781 141.949219 L 172.996094 250.488281 Z M 169.136719 250.558594 " fill-opacity="1" fill-rule="nonzero"/><path fill="#ffffff" d="M 123.554688 252.449219 L 171.683594 157.386719 L 175.125 159.132812 L 127 254.191406 Z M 123.554688 252.449219 " fill-opacity="1" fill-rule="nonzero"/><path fill="#ffffff" d="M 92.3125 214.84375 L 88.472656 214.460938 L 95.78125 141.351562 L 9.964844 164.984375 L 8.941406 161.265625 L 100.175781 136.140625 Z M 92.3125 214.84375 " fill-opacity="1" fill-rule="nonzero"/><path fill="#ffffff" d="M 100.152344 142.574219 C 72.507812 130.496094 19.78125 107.480469 18.085938 106.835938 C 18.660156 107.054688 19.550781 106.984375 20.15625 106.316406 L 17.300781 103.722656 C 17.90625 103.050781 18.714844 102.921875 19.707031 103.328125 C 19.867188 103.398438 20.105469 103.496094 20.417969 103.628906 C 21.027344 103.886719 21.917969 104.269531 23.046875 104.757812 C 25.300781 105.730469 28.515625 107.125 32.375 108.800781 C 39.195312 111.765625 48.703125 115.90625 60.628906 121.109375 C 81.167969 130.070312 101.695312 139.039062 101.695312 139.039062 Z M 100.152344 142.574219 " fill-opacity="1" fill-rule="nonzero"/></svg>