<svg xmlns="http://www.w3.org/2000/svg" xmlns:xlink="http://www.w3.org/1999/xlink" width="240" zoomAndPan="magnify" viewBox="0 0 180 30.000001" height="40" preserveAspectRatio="xMidYMid meet" version="1.0"><defs><g/><clipPath id="c799dfdf3f"><path d="M 2.902344 11 L 5 11 L 5 13 L 2.902344 13 Z M 2.902344 11 " clip-rule="nonzero"/></clipPath></defs><path fill="#ffffff" d="M 9.601562 3.3125 C 9.601562 3.480469 9.566406 3.644531 9.503906 3.796875 C 9.4375 3.953125 9.347656 4.089844 9.230469 4.210938 C 9.109375 4.328125 8.972656 4.421875 8.816406 4.484375 C 8.660156 4.550781 8.5 4.582031 8.332031 4.582031 C 8.164062 4.582031 8.003906 4.550781 7.847656 4.484375 C 7.691406 4.421875 7.554688 4.328125 7.433594 4.210938 C 7.316406 4.089844 7.226562 3.953125 7.160156 3.796875 C 7.097656 3.644531 7.0625 3.480469 7.0625 3.3125 C 7.0625 3.144531 7.097656 2.984375 7.160156 2.828125 C 7.226562 2.671875 7.316406 2.535156 7.433594 2.417969 C 7.554688 2.296875 7.691406 2.207031 7.847656 2.140625 C 8.003906 2.078125 8.164062 2.042969 8.332031 2.042969 C 8.5 2.042969 8.660156 2.078125 8.816406 2.140625 C 8.972656 2.207031 9.109375 2.296875 9.230469 2.417969 C 9.347656 2.535156 9.4375 2.671875 9.503906 2.828125 C 9.566406 2.984375 9.601562 3.144531 9.601562 3.3125 Z M 9.601562 3.3125 " fill-opacity="1" fill-rule="nonzero"/><path fill="#ffffff" d="M 27.753906 8.691406 C 27.753906 8.859375 27.722656 9.023438 27.65625 9.175781 C 27.59375 9.332031 27.503906 9.46875 27.382812 9.589844 C 27.265625 9.707031 27.128906 9.800781 26.972656 9.863281 C 26.816406 9.929688 26.65625 9.960938 26.488281 9.960938 C 26.320312 9.960938 26.15625 9.929688 26 9.863281 C 25.847656 9.800781 25.707031 9.707031 25.589844 9.589844 C 25.472656 9.46875 25.378906 9.332031 25.316406 9.175781 C 25.25 9.023438 25.21875 8.859375 25.21875 8.691406 C 25.21875 8.523438 25.25 8.363281 25.316406 8.207031 C 25.378906 8.050781 25.472656 7.914062 25.589844 7.796875 C 25.707031 7.675781 25.847656 7.585938 26 7.519531 C 26.15625 7.457031 26.320312 7.421875 26.488281 7.421875 C 26.65625 7.421875 26.816406 7.457031 26.972656 7.519531 C 27.128906 7.585938 27.265625 7.675781 27.382812 7.796875 C 27.503906 7.914062 27.59375 8.050781 27.65625 8.207031 C 27.722656 8.363281 27.753906 8.523438 27.753906 8.691406 Z M 27.753906 8.691406 " fill-opacity="1" fill-rule="nonzero"/><path fill="#ffffff" d="M 26.488281 26.675781 C 26.488281 26.84375 26.453125 27.007812 26.390625 27.160156 C 26.324219 27.316406 26.234375 27.453125 26.113281 27.574219 C 25.996094 27.691406 25.859375 27.785156 25.703125 27.847656 C 25.546875 27.914062 25.386719 27.945312 25.21875 27.945312 C 25.050781 27.945312 24.886719 27.914062 24.734375 27.847656 C 24.578125 27.785156 24.441406 27.691406 24.320312 27.574219 C 24.203125 27.453125 24.109375 27.316406 24.046875 27.160156 C 23.984375 27.007812 23.949219 26.84375 23.949219 26.675781 C 23.949219 26.507812 23.984375 26.347656 24.046875 26.191406 C 24.109375 26.035156 24.203125 25.898438 24.320312 25.78125 C 24.441406 25.660156 24.578125 25.570312 24.734375 25.503906 C 24.886719 25.441406 25.050781 25.40625 25.21875 25.40625 C 25.386719 25.40625 25.546875 25.441406 25.703125 25.503906 C 25.859375 25.570312 25.996094 25.660156 26.113281 25.78125 C 26.234375 25.898438 26.324219 26.035156 26.390625 26.191406 C 26.453125 26.347656 26.488281 26.507812 26.488281 26.675781 Z M 26.488281 26.675781 " fill-opacity="1" fill-rule="nonzero"/><path fill="#ffffff" d="M 19.574219 10.371094 C 19.574219 10.636719 19.523438 10.890625 19.421875 11.132812 C 19.320312 11.375 19.175781 11.589844 18.992188 11.777344 C 18.804688 11.964844 18.589844 12.105469 18.347656 12.207031 C 18.101562 12.308594 17.847656 12.359375 17.585938 12.359375 C 17.320312 12.359375 17.066406 12.308594 16.824219 12.207031 C 16.582031 12.105469 16.367188 11.964844 16.179688 11.777344 C 15.992188 11.589844 15.851562 11.375 15.75 11.132812 C 15.648438 10.890625 15.597656 10.636719 15.597656 10.371094 C 15.597656 10.109375 15.648438 9.855469 15.75 9.613281 C 15.851562 9.367188 15.992188 9.152344 16.179688 8.96875 C 16.367188 8.78125 16.582031 8.636719 16.824219 8.535156 C 17.066406 8.433594 17.320312 8.386719 17.585938 8.386719 C 17.847656 8.386719 18.101562 8.433594 18.347656 8.535156 C 18.589844 8.636719 18.804688 8.78125 18.992188 8.96875 C 19.175781 9.152344 19.320312 9.367188 19.421875 9.613281 C 19.523438 9.855469 19.574219 10.109375 19.574219 10.371094 Z M 19.574219 10.371094 " fill-opacity="1" fill-rule="nonzero"/><path fill="#ffffff" d="M 5.460938 7.371094 C 5.460938 7.519531 5.433594 7.664062 5.375 7.800781 C 5.320312 7.9375 5.238281 8.054688 5.132812 8.160156 C 5.027344 8.265625 4.910156 8.347656 4.773438 8.402344 C 4.636719 8.460938 4.492188 8.488281 4.34375 8.488281 C 4.199219 8.488281 4.054688 8.460938 3.917969 8.402344 C 3.78125 8.347656 3.660156 8.265625 3.558594 8.160156 C 3.453125 8.054688 3.371094 7.9375 3.316406 7.800781 C 3.257812 7.664062 3.230469 7.519531 3.230469 7.371094 C 3.230469 7.222656 3.257812 7.082031 3.316406 6.945312 C 3.371094 6.808594 3.453125 6.6875 3.558594 6.582031 C 3.660156 6.480469 3.78125 6.398438 3.917969 6.34375 C 4.054688 6.285156 4.199219 6.257812 4.34375 6.257812 C 4.492188 6.257812 4.636719 6.285156 4.773438 6.34375 C 4.910156 6.398438 5.027344 6.480469 5.132812 6.582031 C 5.238281 6.6875 5.320312 6.808594 5.375 6.945312 C 5.433594 7.082031 5.460938 7.222656 5.460938 7.371094 Z M 5.460938 7.371094 " fill-opacity="1" fill-rule="nonzero"/><path fill="#ffffff" d="M 29.984375 15.09375 C 29.984375 15.242188 29.957031 15.382812 29.898438 15.519531 C 29.84375 15.65625 29.761719 15.777344 29.660156 15.882812 C 29.554688 15.984375 29.433594 16.066406 29.296875 16.125 C 29.160156 16.179688 29.019531 16.207031 28.871094 16.207031 C 28.722656 16.207031 28.578125 16.179688 28.441406 16.125 C 28.304688 16.066406 28.1875 15.984375 28.082031 15.882812 C 27.976562 15.777344 27.894531 15.65625 27.839844 15.519531 C 27.78125 15.382812 27.753906 15.242188 27.753906 15.09375 C 27.753906 14.945312 27.78125 14.804688 27.839844 14.667969 C 27.894531 14.53125 27.976562 14.410156 28.082031 14.304688 C 28.1875 14.199219 28.304688 14.121094 28.441406 14.0625 C 28.578125 14.007812 28.722656 13.976562 28.871094 13.976562 C 29.019531 13.976562 29.160156 14.007812 29.296875 14.0625 C 29.433594 14.121094 29.554688 14.199219 29.660156 14.304688 C 29.761719 14.410156 29.84375 14.53125 29.898438 14.667969 C 29.957031 14.804688 29.984375 14.945312 29.984375 15.09375 Z M 29.984375 15.09375 " fill-opacity="1" fill-rule="nonzero"/><path fill="#ffffff" d="M 26.097656 1.421875 C 26.097656 1.570312 26.070312 1.710938 26.011719 1.847656 C 25.957031 1.984375 25.875 2.105469 25.773438 2.210938 C 25.667969 2.3125 25.546875 2.394531 25.410156 2.449219 C 25.273438 2.507812 25.132812 2.535156 24.984375 2.535156 C 24.835938 2.535156 24.691406 2.507812 24.554688 2.449219 C 24.417969 2.394531 24.300781 2.3125 24.195312 2.210938 C 24.089844 2.105469 24.007812 1.984375 23.953125 1.847656 C 23.894531 1.710938 23.867188 1.570312 23.867188 1.421875 C 23.867188 1.273438 23.894531 1.128906 23.953125 0.992188 C 24.007812 0.855469 24.089844 0.738281 24.195312 0.632812 C 24.300781 0.527344 24.417969 0.445312 24.554688 0.390625 C 24.691406 0.332031 24.835938 0.304688 24.984375 0.304688 C 25.132812 0.304688 25.273438 0.332031 25.410156 0.390625 C 25.546875 0.445312 25.667969 0.527344 25.773438 0.632812 C 25.875 0.738281 25.957031 0.855469 26.011719 0.992188 C 26.070312 1.128906 26.097656 1.273438 26.097656 1.421875 Z M 26.097656 1.421875 " fill-opacity="1" fill-rule="nonzero"/><g clip-path="url(#c799dfdf3f)"><path fill="#ffffff" d="M 4.773438 11.96875 C 4.773438 12.226562 4.683594 12.445312 4.5 12.628906 C 4.316406 12.8125 4.097656 12.902344 3.839844 12.902344 C 3.582031 12.902344 3.359375 12.8125 3.175781 12.628906 C 2.996094 12.445312 2.902344 12.226562 2.902344 11.96875 C 2.902344 11.710938 2.996094 11.488281 3.175781 11.308594 C 3.359375 11.125 3.582031 11.03125 3.839844 11.03125 C 4.097656 11.03125 4.316406 11.125 4.5 11.308594 C 4.683594 11.488281 4.773438 11.710938 4.773438 11.96875 Z M 4.773438 11.96875 " fill-opacity="1" fill-rule="nonzero"/></g><path fill="#ffffff" d="M 7.445312 15.59375 C 7.445312 15.832031 7.359375 16.039062 7.191406 16.207031 C 7.019531 16.375 6.816406 16.460938 6.578125 16.460938 C 6.335938 16.460938 6.132812 16.375 5.964844 16.207031 C 5.792969 16.039062 5.707031 15.832031 5.707031 15.59375 C 5.707031 15.355469 5.792969 15.148438 5.964844 14.980469 C 6.132812 14.808594 6.335938 14.726562 6.578125 14.726562 C 6.816406 14.726562 7.019531 14.808594 7.191406 14.980469 C 7.359375 15.148438 7.445312 15.355469 7.445312 15.59375 Z M 7.445312 15.59375 " fill-opacity="1" fill-rule="nonzero"/><path fill="#ffffff" d="M 11.21875 16.214844 C 11.21875 16.453125 11.132812 16.65625 10.964844 16.828125 C 10.792969 16.996094 10.589844 17.082031 10.351562 17.082031 C 10.109375 17.082031 9.90625 16.996094 9.738281 16.828125 C 9.566406 16.65625 9.484375 16.453125 9.484375 16.214844 C 9.484375 15.972656 9.566406 15.769531 9.738281 15.601562 C 9.90625 15.429688 10.109375 15.347656 10.351562 15.347656 C 10.589844 15.347656 10.792969 15.429688 10.964844 15.601562 C 11.132812 15.769531 11.21875 15.972656 11.21875 16.214844 Z M 11.21875 16.214844 " fill-opacity="1" fill-rule="nonzero"/><path fill="#ffffff" d="M 23.726562 20.839844 C 23.726562 20.957031 23.6875 21.0625 23.601562 21.144531 C 23.515625 21.230469 23.414062 21.273438 23.292969 21.273438 C 23.175781 21.273438 23.070312 21.230469 22.988281 21.144531 C 22.902344 21.0625 22.859375 20.957031 22.859375 20.839844 C 22.859375 20.71875 22.902344 20.617188 22.988281 20.53125 C 23.070312 20.445312 23.175781 20.40625 23.292969 20.40625 C 23.414062 20.40625 23.515625 20.445312 23.601562 20.53125 C 23.6875 20.617188 23.726562 20.71875 23.726562 20.839844 Z M 23.726562 20.839844 " fill-opacity="1" fill-rule="nonzero"/><path fill="#ffffff" d="M 33.105469 8.691406 C 33.105469 8.8125 33.066406 8.914062 32.980469 9 C 32.894531 9.082031 32.792969 9.125 32.671875 9.125 C 32.554688 9.125 32.449219 9.082031 32.367188 9 C 32.28125 8.914062 32.238281 8.8125 32.238281 8.691406 C 32.238281 8.570312 32.28125 8.46875 32.367188 8.386719 C 32.449219 8.300781 32.554688 8.257812 32.671875 8.257812 C 32.792969 8.257812 32.894531 8.300781 32.980469 8.386719 C 33.066406 8.46875 33.105469 8.570312 33.105469 8.691406 Z M 33.105469 8.691406 " fill-opacity="1" fill-rule="nonzero"/><path fill="#ffffff" d="M 17.863281 0.441406 C 17.863281 0.5625 17.824219 0.664062 17.738281 0.75 C 17.652344 0.832031 17.550781 0.875 17.429688 0.875 C 17.3125 0.875 17.210938 0.832031 17.125 0.75 C 17.039062 0.664062 16.996094 0.5625 16.996094 0.441406 C 16.996094 0.320312 17.039062 0.21875 17.125 0.136719 C 17.210938 0.0507812 17.3125 0.0078125 17.429688 0.0078125 C 17.550781 0.0078125 17.652344 0.0507812 17.738281 0.136719 C 17.824219 0.21875 17.863281 0.320312 17.863281 0.441406 Z M 17.863281 0.441406 " fill-opacity="1" fill-rule="nonzero"/><path fill="#ffffff" d="M 31.53125 5.539062 C 31.53125 5.710938 31.472656 5.859375 31.347656 5.980469 C 31.226562 6.105469 31.078125 6.164062 30.90625 6.164062 C 30.734375 6.164062 30.585938 6.105469 30.464844 5.980469 C 30.34375 5.859375 30.28125 5.710938 30.28125 5.539062 C 30.28125 5.367188 30.34375 5.21875 30.464844 5.097656 C 30.585938 4.976562 30.734375 4.914062 30.90625 4.914062 C 31.078125 4.914062 31.226562 4.976562 31.347656 5.097656 C 31.472656 5.21875 31.53125 5.367188 31.53125 5.539062 Z M 31.53125 5.539062 " fill-opacity="1" fill-rule="nonzero"/><path fill="#ffffff" d="M 21.53125 5.773438 C 21.53125 5.945312 21.472656 6.09375 21.351562 6.214844 C 21.226562 6.335938 21.082031 6.398438 20.90625 6.398438 C 20.734375 6.398438 20.589844 6.335938 20.464844 6.214844 C 20.34375 6.09375 20.28125 5.945312 20.28125 5.773438 C 20.28125 5.601562 20.34375 5.453125 20.464844 5.332031 C 20.589844 5.210938 20.734375 5.148438 20.90625 5.148438 C 21.082031 5.148438 21.226562 5.210938 21.351562 5.332031 C 21.472656 5.453125 21.53125 5.601562 21.53125 5.773438 Z M 21.53125 5.773438 " fill-opacity="1" fill-rule="nonzero"/><path fill="#ffffff" d="M 11.601562 10.089844 C 11.601562 10.261719 11.539062 10.410156 11.417969 10.53125 C 11.296875 10.65625 11.148438 10.714844 10.976562 10.714844 C 10.804688 10.714844 10.65625 10.65625 10.535156 10.53125 C 10.410156 10.410156 10.351562 10.261719 10.351562 10.089844 C 10.351562 9.917969 10.410156 9.769531 10.535156 9.648438 C 10.65625 9.527344 10.804688 9.464844 10.976562 9.464844 C 11.148438 9.464844 11.296875 9.527344 11.417969 9.648438 C 11.539062 9.769531 11.601562 9.917969 11.601562 10.089844 Z M 11.601562 10.089844 " fill-opacity="1" fill-rule="nonzero"/><path fill="#ffffff" d="M 17.863281 19.285156 C 17.863281 19.523438 17.78125 19.726562 17.609375 19.898438 C 17.441406 20.066406 17.238281 20.152344 16.996094 20.152344 C 16.757812 20.152344 16.554688 20.066406 16.382812 19.898438 C 16.214844 19.726562 16.128906 19.523438 16.128906 19.285156 C 16.128906 19.042969 16.214844 18.839844 16.382812 18.671875 C 16.554688 18.5 16.757812 18.417969 16.996094 18.417969 C 17.238281 18.417969 17.441406 18.5 17.609375 18.671875 C 17.78125 18.839844 17.863281 19.042969 17.863281 19.285156 Z M 17.863281 19.285156 " fill-opacity="1" fill-rule="nonzero"/><path fill="#ffffff" d="M 25.675781 17.324219 C 25.675781 17.515625 25.609375 17.675781 25.472656 17.8125 C 25.335938 17.949219 25.175781 18.015625 24.984375 18.015625 C 24.792969 18.015625 24.628906 17.949219 24.492188 17.8125 C 24.359375 17.675781 24.292969 17.515625 24.292969 17.324219 C 24.292969 17.132812 24.359375 16.96875 24.492188 16.832031 C 24.628906 16.699219 24.792969 16.628906 24.984375 16.628906 C 25.175781 16.628906 25.335938 16.699219 25.472656 16.832031 C 25.609375 16.96875 25.675781 17.132812 25.675781 17.324219 Z M 25.675781 17.324219 " fill-opacity="1" fill-rule="nonzero"/><path fill="#ffffff" d="M 33.800781 13.066406 C 33.800781 13.257812 33.730469 13.421875 33.597656 13.554688 C 33.460938 13.691406 33.296875 13.757812 33.105469 13.757812 C 32.914062 13.757812 32.753906 13.691406 32.617188 13.554688 C 32.484375 13.421875 32.414062 13.257812 32.414062 13.066406 C 32.414062 12.875 32.484375 12.710938 32.617188 12.578125 C 32.753906 12.441406 32.914062 12.375 33.105469 12.375 C 33.296875 12.375 33.460938 12.441406 33.597656 12.578125 C 33.730469 12.710938 33.800781 12.875 33.800781 13.066406 Z M 33.800781 13.066406 " fill-opacity="1" fill-rule="nonzero"/><path fill="#ffffff" d="M 22.917969 23.152344 C 22.917969 23.390625 22.832031 23.597656 22.664062 23.765625 C 22.496094 23.933594 22.289062 24.019531 22.050781 24.019531 C 21.8125 24.019531 21.605469 23.933594 21.4375 23.765625 C 21.265625 23.597656 21.183594 23.390625 21.183594 23.152344 C 21.183594 22.914062 21.265625 22.707031 21.4375 22.539062 C 21.605469 22.367188 21.8125 22.285156 22.050781 22.285156 C 22.289062 22.285156 22.496094 22.367188 22.664062 22.539062 C 22.832031 22.707031 22.917969 22.914062 22.917969 23.152344 Z M 22.917969 23.152344 " fill-opacity="1" fill-rule="nonzero"/><path fill="#ffffff" d="M 30.207031 20.152344 C 30.207031 20.390625 30.121094 20.597656 29.953125 20.765625 C 29.78125 20.933594 29.578125 21.019531 29.339844 21.019531 C 29.097656 21.019531 28.894531 20.933594 28.726562 20.765625 C 28.554688 20.597656 28.472656 20.390625 28.472656 20.152344 C 28.472656 19.914062 28.554688 19.707031 28.726562 19.539062 C 28.894531 19.367188 29.097656 19.285156 29.339844 19.285156 C 29.578125 19.285156 29.78125 19.367188 29.953125 19.539062 C 30.121094 19.707031 30.207031 19.914062 30.207031 20.152344 Z M 30.207031 20.152344 " fill-opacity="1" fill-rule="nonzero"/><path fill="#ffffff" d="M 23.65625 13.460938 C 23.65625 13.703125 23.570312 13.90625 23.402344 14.074219 C 23.234375 14.246094 23.027344 14.328125 22.789062 14.328125 C 22.550781 14.328125 22.34375 14.246094 22.175781 14.074219 C 22.007812 13.90625 21.921875 13.703125 21.921875 13.460938 C 21.921875 13.222656 22.007812 13.019531 22.175781 12.847656 C 22.34375 12.679688 22.550781 12.59375 22.789062 12.59375 C 23.027344 12.59375 23.234375 12.679688 23.402344 12.847656 C 23.570312 13.019531 23.65625 13.222656 23.65625 13.460938 Z M 23.65625 13.460938 " fill-opacity="1" fill-rule="nonzero"/><path fill="#ffffff" d="M 15.078125 4.28125 C 15.078125 4.519531 14.992188 4.722656 14.824219 4.894531 C 14.652344 5.0625 14.449219 5.148438 14.210938 5.148438 C 13.96875 5.148438 13.765625 5.0625 13.597656 4.894531 C 13.425781 4.722656 13.34375 4.519531 13.34375 4.28125 C 13.34375 4.039062 13.425781 3.835938 13.597656 3.667969 C 13.765625 3.496094 13.96875 3.414062 14.210938 3.414062 C 14.449219 3.414062 14.652344 3.496094 14.824219 3.667969 C 14.992188 3.835938 15.078125 4.039062 15.078125 4.28125 Z M 15.078125 4.28125 " fill-opacity="1" fill-rule="nonzero"/><path fill="#ffffff" d="M 14.378906 19.699219 C 14.378906 19.835938 14.351562 19.96875 14.300781 20.097656 C 14.246094 20.222656 14.171875 20.335938 14.074219 20.433594 C 13.976562 20.53125 13.867188 20.605469 13.738281 20.65625 C 13.613281 20.710938 13.480469 20.734375 13.34375 20.734375 C 13.203125 20.734375 13.074219 20.710938 12.945312 20.65625 C 12.820312 20.605469 12.707031 20.53125 12.609375 20.433594 C 12.511719 20.335938 12.4375 20.222656 12.386719 20.097656 C 12.332031 19.96875 12.304688 19.835938 12.304688 19.699219 C 12.304688 19.5625 12.332031 19.429688 12.386719 19.304688 C 12.4375 19.175781 12.511719 19.066406 12.609375 18.96875 C 12.707031 18.871094 12.820312 18.796875 12.945312 18.742188 C 13.074219 18.691406 13.203125 18.664062 13.34375 18.664062 C 13.480469 18.664062 13.613281 18.691406 13.738281 18.742188 C 13.867188 18.796875 13.976562 18.871094 14.074219 18.96875 C 14.171875 19.066406 14.246094 19.175781 14.300781 19.304688 C 14.351562 19.429688 14.378906 19.5625 14.378906 19.699219 Z M 14.378906 19.699219 " fill-opacity="1" fill-rule="nonzero"/><path fill="#ffffff" d="M 25.816406 27.59375 L 21.941406 23.269531 L 17.046875 19.449219 L 13.277344 19.976562 L 10.269531 16.363281 L 6.386719 15.875 L 3.675781 11.78125 L 4.191406 7.222656 L 7.742188 3.304688 L 7.976562 3.519531 L 4.496094 7.359375 L 4.003906 11.703125 L 6.574219 15.578125 L 10.433594 16.0625 L 13.40625 19.640625 L 17.136719 19.117188 L 22.160156 23.035156 L 25.003906 26.210938 L 23.078125 20.597656 L 29.371094 20.003906 L 33.097656 12.839844 L 32.519531 8.625 L 30.785156 5.535156 L 24.769531 1.363281 L 17.445312 0.601562 L 8.238281 3.382812 L 8.144531 3.078125 L 17.414062 0.28125 L 17.449219 0.285156 L 24.882812 1.054688 L 24.917969 1.078125 L 31.027344 5.316406 L 32.828125 8.523438 L 33.425781 12.898438 L 29.574219 20.300781 L 23.511719 20.875 Z M 25.816406 27.59375 " fill-opacity="1" fill-rule="nonzero"/><path fill="#ffffff" d="M 23.152344 20.664062 L 24.753906 17.527344 L 25.039062 17.675781 L 23.4375 20.808594 Z M 23.152344 20.664062 " fill-opacity="1" fill-rule="nonzero"/><path fill="#ffffff" d="M 24.828125 17.539062 L 22.601562 13.300781 L 26.53125 8.0625 L 29.300781 15.167969 Z M 22.976562 13.332031 L 24.960938 17.109375 L 28.902344 15.019531 L 26.441406 8.710938 Z M 22.976562 13.332031 " fill-opacity="1" fill-rule="nonzero"/><path fill="#ffffff" d="M 29.535156 20.484375 L 24.953125 17.492188 L 17.359375 19.195312 L 17.289062 18.886719 L 25.015625 17.152344 L 29.140625 19.847656 L 28.582031 14.996094 L 33.039062 12.921875 L 33.175781 13.210938 L 28.925781 15.1875 Z M 29.535156 20.484375 " fill-opacity="1" fill-rule="nonzero"/><path fill="#ffffff" d="M 26.449219 8.648438 L 26.625 8.386719 L 33.351562 12.933594 L 33.171875 13.199219 Z M 26.449219 8.648438 " fill-opacity="1" fill-rule="nonzero"/><path fill="#ffffff" d="M 26.5625 8.386719 L 30.816406 5.410156 L 31 5.671875 L 26.746094 8.648438 Z M 26.5625 8.386719 " fill-opacity="1" fill-rule="nonzero"/><path fill="#ffffff" d="M 18.050781 10.285156 L 18 9.972656 L 26.59375 8.53125 L 32.6875 8.53125 L 32.6875 8.851562 L 26.621094 8.851562 Z M 18.050781 10.285156 " fill-opacity="1" fill-rule="nonzero"/><path fill="#ffffff" d="M 22.78125 13.597656 L 17.019531 10.089844 L 17.011719 10.085938 L 8.222656 3.195312 L 14.324219 3.839844 L 17.449219 0.175781 L 20.894531 5.539062 L 21.085938 5.417969 L 25.078125 0.65625 L 26.480469 7.980469 L 26.167969 8.042969 L 24.890625 1.375 L 21.296875 5.660156 L 21.066406 5.804688 L 21.128906 5.902344 L 20.972656 5.867188 L 20.582031 6.109375 L 18.25 8.96875 L 17.070312 9.726562 L 17.203125 9.828125 L 22.949219 13.328125 Z M 9.289062 3.628906 L 16.757812 9.480469 L 13.757812 4.101562 Z M 14.257812 4.339844 L 17.054688 9.359375 L 18.035156 8.726562 L 20.367188 5.871094 L 20.535156 5.765625 Z M 14.539062 4.078125 L 20.441406 5.417969 L 17.414062 0.707031 Z M 14.539062 4.078125 " fill-opacity="1" fill-rule="nonzero"/><path fill="#ffffff" d="M 16.839844 19.171875 L 16.683594 10.519531 L 10.867188 10.113281 L 7.96875 3.375 L 8.257812 3.25 L 11.082031 9.808594 L 16.996094 10.222656 L 17.15625 19.167969 Z M 16.839844 19.171875 " fill-opacity="1" fill-rule="nonzero"/><path fill="#ffffff" d="M 13.082031 19.328125 L 17.046875 11.496094 L 17.332031 11.640625 L 13.367188 19.472656 Z M 13.082031 19.328125 " fill-opacity="1" fill-rule="nonzero"/><path fill="#ffffff" d="M 10.507812 16.230469 L 10.191406 16.199219 L 10.792969 10.175781 L 3.722656 12.121094 L 3.640625 11.816406 L 11.15625 9.746094 Z M 10.507812 16.230469 " fill-opacity="1" fill-rule="nonzero"/><path fill="#ffffff" d="M 11.15625 10.277344 C 8.878906 9.28125 4.53125 7.382812 4.394531 7.332031 C 4.441406 7.347656 4.515625 7.34375 4.5625 7.289062 L 4.328125 7.074219 C 4.378906 7.019531 4.445312 7.007812 4.527344 7.042969 C 4.539062 7.046875 4.558594 7.054688 4.585938 7.066406 C 4.636719 7.089844 4.707031 7.121094 4.800781 7.160156 C 4.988281 7.238281 5.253906 7.355469 5.570312 7.492188 C 6.132812 7.738281 6.914062 8.078125 7.898438 8.507812 C 9.589844 9.246094 11.28125 9.984375 11.28125 9.984375 Z M 11.15625 10.277344 " fill-opacity="1" fill-rule="nonzero"/><g fill="#ffffff" fill-opacity="1"><g transform="translate(43.239662, 18.006531)"><g><path d="M 16.4375 0 L 14.265625 0 L 12.609375 -2.4375 L 4.0625 -2.4375 L 2.390625 0 L 0.234375 0 L 7.859375 -11.265625 L 8.8125 -11.265625 Z M 11.40625 -4.234375 L 8.328125 -8.78125 L 5.25 -4.234375 Z M 11.40625 -4.234375 "/></g></g><g transform="translate(59.908928, 18.006531)"><g><path d="M 15 0 L 13.203125 0 L 13.203125 -3.171875 C 13.203125 -3.421875 13.113281 -3.632812 12.9375 -3.8125 C 12.769531 -3.988281 12.5625 -4.078125 12.3125 -4.078125 L 3.359375 -4.078125 L 3.359375 0 L 1.578125 0 L 1.578125 -11.265625 L 12.3125 -11.265625 C 13.050781 -11.265625 13.679688 -11.003906 14.203125 -10.484375 C 14.734375 -9.960938 15 -9.332031 15 -8.59375 L 15 -6.765625 C 15 -6.066406 14.769531 -5.46875 14.3125 -4.96875 C 14.769531 -4.457031 15 -3.859375 15 -3.171875 Z M 12.3125 -5.859375 C 12.5625 -5.859375 12.769531 -5.945312 12.9375 -6.125 C 13.113281 -6.300781 13.203125 -6.515625 13.203125 -6.765625 L 13.203125 -8.59375 C 13.203125 -8.832031 13.113281 -9.039062 12.9375 -9.21875 C 12.769531 -9.394531 12.5625 -9.484375 12.3125 -9.484375 L 3.359375 -9.484375 L 3.359375 -5.859375 Z M 12.3125 -5.859375 "/></g></g><g transform="translate(76.090926, 18.006531)"><g><path d="M 11.03125 0 C 12.019531 0 12.863281 -0.347656 13.5625 -1.046875 C 14.257812 -1.742188 14.609375 -2.585938 14.609375 -3.578125 L 12.8125 -3.578125 C 12.8125 -3.085938 12.632812 -2.664062 12.28125 -2.3125 C 11.9375 -1.96875 11.519531 -1.796875 11.03125 -1.796875 L 4.765625 -1.796875 C 4.265625 -1.796875 3.835938 -1.96875 3.484375 -2.3125 C 3.140625 -2.664062 2.96875 -3.085938 2.96875 -3.578125 L 2.96875 -7.6875 C 2.96875 -8.1875 3.140625 -8.609375 3.484375 -8.953125 C 3.835938 -9.304688 4.265625 -9.484375 4.765625 -9.484375 L 11.03125 -9.484375 C 11.519531 -9.484375 11.9375 -9.304688 12.28125 -8.953125 C 12.632812 -8.609375 12.8125 -8.1875 12.8125 -7.6875 L 14.609375 -7.6875 C 14.609375 -8.675781 14.257812 -9.519531 13.5625 -10.21875 C 12.863281 -10.914062 12.019531 -11.265625 11.03125 -11.265625 L 4.765625 -11.265625 C 3.773438 -11.265625 2.925781 -10.914062 2.21875 -10.21875 C 1.519531 -9.519531 1.171875 -8.675781 1.171875 -7.6875 L 1.171875 -3.578125 C 1.171875 -2.585938 1.519531 -1.742188 2.21875 -1.046875 C 2.925781 -0.347656 3.773438 0 4.765625 0 Z M 11.03125 0 "/></g></g><g transform="translate(91.879967, 18.006531)"><g><path d="M 16.4375 0 L 14.265625 0 L 12.609375 -2.4375 L 4.0625 -2.4375 L 2.390625 0 L 0.234375 0 L 7.859375 -11.265625 L 8.8125 -11.265625 Z M 11.40625 -4.234375 L 8.328125 -8.78125 L 5.25 -4.234375 Z M 11.40625 -4.234375 "/></g></g><g transform="translate(108.549233, 18.006531)"><g><path d="M 15 0 L 13.78125 0 L 3.359375 -8.5 L 3.359375 0 L 1.578125 0 L 1.578125 -11.265625 L 2.78125 -11.265625 L 13.203125 -2.78125 L 13.203125 -11.265625 L 15 -11.265625 Z M 15 0 "/></g></g><g transform="translate(125.12419, 18.006531)"><g/></g><g transform="translate(129.11664, 18.006531)"><g><path d="M 3.359375 0 L 1.578125 0 L 1.578125 -11.265625 L 12.3125 -11.265625 C 13.050781 -11.265625 13.679688 -11.003906 14.203125 -10.484375 C 14.734375 -9.960938 15 -9.332031 15 -8.59375 L 15 -6.765625 C 15 -6.015625 14.734375 -5.378906 14.203125 -4.859375 C 13.679688 -4.335938 13.050781 -4.078125 12.3125 -4.078125 L 3.359375 -4.078125 Z M 12.3125 -5.859375 C 12.5625 -5.859375 12.769531 -5.945312 12.9375 -6.125 C 13.113281 -6.300781 13.203125 -6.515625 13.203125 -6.765625 L 13.203125 -8.59375 C 13.203125 -8.832031 13.113281 -9.039062 12.9375 -9.21875 C 12.769531 -9.394531 12.5625 -9.484375 12.3125 -9.484375 L 3.359375 -9.484375 L 3.359375 -5.859375 Z M 12.3125 -5.859375 "/></g></g><g transform="translate(145.298638, 18.006531)"><g><path d="M 11.921875 0 L 3.859375 0 C 3.117188 0 2.484375 -0.257812 1.953125 -0.78125 C 1.429688 -1.3125 1.171875 -1.945312 1.171875 -2.6875 L 2.96875 -2.6875 C 2.96875 -2.4375 3.054688 -2.222656 3.234375 -2.046875 C 3.410156 -1.878906 3.617188 -1.796875 3.859375 -1.796875 L 11.921875 -1.796875 C 12.171875 -1.796875 12.378906 -1.878906 12.546875 -2.046875 C 12.722656 -2.222656 12.8125 -2.4375 12.8125 -2.6875 L 12.8125 -3.84375 C 12.8125 -4.09375 12.722656 -4.300781 12.546875 -4.46875 C 12.378906 -4.644531 12.171875 -4.734375 11.921875 -4.734375 L 3.859375 -4.734375 C 3.117188 -4.734375 2.484375 -4.992188 1.953125 -5.515625 C 1.429688 -6.046875 1.171875 -6.679688 1.171875 -7.421875 L 1.171875 -8.59375 C 1.171875 -9.332031 1.429688 -9.960938 1.953125 -10.484375 C 2.484375 -11.003906 3.117188 -11.265625 3.859375 -11.265625 L 11.921875 -11.265625 C 12.660156 -11.265625 13.289062 -11.003906 13.8125 -10.484375 C 14.34375 -9.960938 14.609375 -9.332031 14.609375 -8.59375 L 12.8125 -8.59375 C 12.8125 -8.832031 12.722656 -9.039062 12.546875 -9.21875 C 12.378906 -9.394531 12.171875 -9.484375 11.921875 -9.484375 L 3.859375 -9.484375 C 3.617188 -9.484375 3.410156 -9.394531 3.234375 -9.21875 C 3.054688 -9.039062 2.96875 -8.832031 2.96875 -8.59375 L 2.96875 -7.421875 C 2.96875 -7.179688 3.054688 -6.972656 3.234375 -6.796875 C 3.410156 -6.617188 3.617188 -6.53125 3.859375 -6.53125 L 11.921875 -6.53125 C 12.660156 -6.53125 13.289062 -6.265625 13.8125 -5.734375 C 14.34375 -5.210938 14.609375 -4.582031 14.609375 -3.84375 L 14.609375 -2.6875 C 14.609375 -1.945312 14.34375 -1.3125 13.8125 -0.78125 C 13.289062 -0.257812 12.660156 0 11.921875 0 Z M 11.921875 0 "/></g></g><g transform="translate(161.087679, 18.006531)"><g><path d="M 8.890625 0 L 7.09375 0 L 7.09375 -5.234375 L 0.234375 -11.265625 L 2.9375 -11.265625 L 7.984375 -6.828125 L 13.03125 -11.265625 L 15.75 -11.265625 L 8.890625 -5.234375 Z M 8.890625 0 "/></g></g></g></svg>